<svg width="303" height="87" viewBox="0 0 303 87" fill="none" xmlns="http://www.w3.org/2000/svg">
<path d="M279.754 59.3119C279.754 57.6559 277.378 57.6559 277.306 58.8799C277.09 62.3359 276.586 65.2879 274.858 68.6719M279.754 59.3119L278.755 59.2703C278.754 59.2787 278.754 59.2871 278.754 59.2955M279.754 59.3119C279.61 62.7679 279.178 66.7279 277.234 69.4639C276.37 70.7599 274.354 69.8239 274.858 68.6719M279.754 59.3119H278.754C278.754 59.3063 278.754 59.3008 278.754 59.2955M278.754 59.2955C278.752 59.22 278.738 59.1756 278.729 59.1527C278.719 59.1284 278.706 59.1115 278.691 59.097C278.657 59.0641 278.582 59.0222 278.468 59.012C278.395 59.0054 278.337 59.0147 278.299 59.0257M278.754 59.2955C278.608 62.7578 278.168 66.4229 276.419 68.8847L276.41 68.8969L276.402 68.9092C276.325 69.0241 276.248 69.0628 276.182 69.0794C276.101 69.0999 275.998 69.0942 275.899 69.0554C275.859 69.0398 275.83 69.0228 275.809 69.0079M278.299 59.0257C278.301 58.9979 278.302 58.9701 278.304 58.9423L278.304 58.9387C278.304 58.9398 278.304 58.941 278.304 58.9423C278.302 58.9571 278.295 58.9846 278.278 59.0127C278.26 59.0403 278.245 59.0484 278.251 59.045C278.258 59.0402 278.275 59.0326 278.299 59.0257ZM278.299 59.0257C278.077 62.4855 277.559 65.5357 275.809 69.0079M275.809 69.0079C275.774 68.9835 275.761 68.9646 275.763 68.9664C275.766 68.9723 275.776 68.9933 275.778 69.0257C275.78 69.0517 275.775 69.0686 275.774 69.0727L274.858 68.6719M275.809 69.0079C275.789 69.0475 275.769 69.0871 275.749 69.1267L274.858 68.6719M299.106 15.6967L299.1 15.6905L299.095 15.6843C297.637 13.9506 295.82 12.8519 293.878 12.6172C291.918 12.3803 289.959 13.0403 288.292 14.5853C288.291 14.5857 288.291 14.5861 288.29 14.5865L284.907 17.7096C282.115 17.2523 279.996 16.9839 277.666 16.9839C263.654 16.9839 256.213 24.3771 254.442 32.4541C253.042 38.6219 254.863 45.2517 259.581 48.8687C254.732 53.1096 252.132 59.7221 253.061 65.7991L253.061 65.7991L253.063 65.8091C253.681 69.5925 255.695 73.1822 259.443 75.8089C263.177 78.4253 268.562 80.0399 275.866 80.0399C289.619 80.0399 297.723 74.0885 299.235 67.083L299.236 67.0789C300.108 62.9558 298.7 58.6848 295.159 55.3934C291.629 52.1134 286.017 49.8252 278.434 49.4571L278.41 49.4559H278.386C278.369 49.4559 278.353 49.4556 278.337 49.4551C278.389 49.4462 278.45 49.4403 278.523 49.44C283.067 49.5109 286.76 50.4187 289.895 51.6724L290.312 51.8392L290.713 51.6384C297.528 48.231 299.978 40.9995 299.978 34.1839C299.978 31.2716 299.547 29.5083 299.091 28.3323C298.909 27.8615 298.722 27.4874 298.588 27.2211C298.559 27.163 298.533 27.1101 298.51 27.0624C298.502 27.048 298.496 27.0343 298.49 27.0212L298.939 26.4898C300.398 24.8687 301.181 23.0448 301.202 21.145C301.223 19.2449 300.481 17.3865 299.106 15.6967ZM276.46 37.7815C276.432 37.7703 276.408 37.7587 276.389 37.7476C278.061 34.2912 278.724 31.1806 278.948 27.6822C278.98 27.6713 279.03 27.6612 279.092 27.666C279.183 27.673 279.237 27.7061 279.262 27.7304L279.262 27.7307C279.273 27.7416 279.327 27.7953 279.33 27.9751C279.183 31.5499 278.878 35.1779 277.077 37.6227L277.077 37.6227L277.071 37.6305C276.986 37.748 276.896 37.7948 276.806 37.8147C276.702 37.8379 276.575 37.8273 276.46 37.7815Z" fill="white" stroke="black" stroke-width="2"/>
<path d="M227.062 55.4575L227.063 55.4509C227.136 54.7163 227.191 53.984 227.245 53.2563L227.251 53.1754C227.3 52.5178 227.348 51.8632 227.41 51.1962C227.463 51.0861 227.517 51.0396 227.539 51.0242C227.543 51.0293 227.548 51.0359 227.554 51.0442C227.59 51.0975 227.66 51.2426 227.66 51.5354V51.5631L227.661 51.5909C227.735 52.9202 227.883 54.2428 228.027 55.4682L228.027 55.4705C228.371 58.3366 229.417 60.8142 231.32 62.5744C233.229 64.3406 235.887 65.2794 239.244 65.2794C242.577 65.2794 245.095 64.3336 246.939 62.5614C248.757 60.8137 249.81 58.3668 250.443 55.5725C251.617 50.4362 252.123 43.8789 252.196 38.4447L252.196 38.4439C252.268 32.6834 252.006 27.0567 247.687 22.3503C244.779 19.1293 240.367 17.7754 236.22 17.7754C233.604 17.7754 231.123 18.7245 228.946 20.0007L228.946 20.0006L228.937 20.0059C227.663 20.7707 226.454 21.8518 225.366 23.1549L225.174 22.7445C224.279 20.8264 222.617 19.5827 220.713 18.8269C218.814 18.0733 216.61 17.7754 214.476 17.7754C211.657 17.7754 209.23 18.7195 207.505 20.4443C205.78 22.1691 204.836 24.5961 204.836 27.4154V40.3034V40.3185L204.836 40.3337C204.98 45.0857 205.197 50.6635 205.706 55.4569L205.706 55.4575C206.011 58.3215 207.017 60.7996 208.862 62.5633C210.716 64.3354 213.306 65.2794 216.564 65.2794C219.757 65.2794 222.265 64.3304 224.048 62.5475C225.816 60.7795 226.759 58.3039 227.062 55.4575ZM227.521 51.0074C227.521 51.0074 227.522 51.0078 227.524 51.0089C227.522 51.0081 227.521 51.0075 227.521 51.0074ZM220.221 38.461C219.788 34.2039 220.835 30.1483 223.125 26.4594C222.91 26.8511 222.705 27.2519 222.51 27.6606C220.93 30.9788 220.02 34.9028 220.316 38.7654C220.284 38.7134 220.242 38.6197 220.221 38.461ZM220.386 38.836C220.385 38.836 220.385 38.8359 220.384 38.8356L220.386 38.836Z" fill="#0EB400" stroke="black" stroke-width="2"/>
<path d="M200.966 31.6409L200.966 31.6367C200.634 29.729 199.611 27.9819 197.841 26.7264C196.082 25.4788 193.65 24.76 190.549 24.76C187.347 24.76 184.845 25.4752 183.049 26.7201C181.239 27.9744 180.207 29.7279 179.913 31.6531C178.529 40.2515 178.528 49.7869 179.912 58.3853C180.206 60.3449 181.238 62.1016 183.052 63.349C184.85 64.5852 187.352 65.28 190.549 65.28C193.644 65.28 196.077 64.5818 197.838 63.3429C199.613 62.0939 200.636 60.3429 200.966 58.3998L200.966 58.3991C202.425 49.7925 202.425 40.2475 200.966 31.6409ZM180.117 12.008C180.117 18.9927 185.125 23.016 190.549 23.016C196.631 23.016 200.981 18.0445 200.981 12.224C200.981 6.59879 196.462 1 190.549 1C185.172 1 180.117 5.47971 180.117 12.008Z" fill="white" stroke="black" stroke-width="2"/>
<path d="M168.979 17.7066C165.483 17.4409 162.449 18.1773 160.04 20.2213L159.295 19.6425C158.826 19.2774 158.168 19.0051 157.474 18.7919C156.758 18.5718 155.909 18.3873 154.989 18.2386C153.148 17.941 150.952 17.7758 148.817 17.7758C146.563 17.7758 144.412 17.9199 142.815 18.2223C140.268 18.6254 138.897 21.1836 138.818 23.7855L138.818 23.7938L138.817 23.8021C138.795 25.4614 138.767 27.1212 138.738 28.7817C138.588 37.6109 138.438 46.459 139.108 55.355L139.109 55.3596C139.337 58.2123 140.256 60.856 142.02 62.8005C143.803 64.7678 146.369 65.9278 149.681 65.9278C152.931 65.9278 155.442 64.7611 157.203 62.7963C158.941 60.8576 159.877 58.2245 160.18 55.3859L160.18 55.3859L160.181 55.3779C160.687 50.2372 160.976 44.957 161.121 39.7556L161.121 39.7417V39.7278C161.121 39.5585 161.136 39.4109 161.159 39.2902C163.517 41.1877 166.453 42.358 169.131 41.94C172.991 41.3428 175.211 39.1566 176.423 36.6119C177.606 34.1287 177.825 31.3275 177.825 29.3686C177.862 27.2067 177.346 24.4652 175.995 22.1738C174.622 19.8469 172.359 17.9515 168.979 17.7066Z" fill="white" stroke="black" stroke-width="2"/>
<path d="M100.124 32.8155C100.124 34.9725 100.623 36.9875 101.771 38.5257C102.941 40.0921 104.711 41.065 107.024 41.2287C115.065 41.8804 121.525 41.8805 129.494 41.2287C131.868 41.0661 133.676 40.1012 134.869 38.5327C136.04 36.9916 136.54 34.9723 136.54 32.8155C136.54 30.9287 136.032 28.9744 134.859 27.5246C133.65 26.0296 131.803 25.1637 129.391 25.4126C121.478 26.1966 115.134 26.0555 107.184 25.411C104.812 25.204 102.991 26.0708 101.794 27.5523C100.632 28.9919 100.124 30.9272 100.124 32.8155Z" fill="white" stroke="black" stroke-width="2"/>
<path d="M69.4507 52.8471L69.4454 52.8478C69.2827 52.869 69.1882 52.8296 69.1227 52.7833C69.0427 52.7267 68.9677 52.629 68.9245 52.5068C68.91 52.4659 68.9011 52.4276 68.8964 52.394C72.7557 51.4226 75.4305 49.863 78.1906 47.5537C78.2488 47.5769 78.3296 47.6296 78.3955 47.7123C78.469 47.8047 78.4742 47.8694 78.4732 47.8856C78.4728 47.8922 78.4714 47.9063 78.4568 47.9325C78.4413 47.9604 78.4024 48.0167 78.31 48.0905L78.3012 48.0976L78.2925 48.1049C75.6334 50.3328 72.5906 52.4546 69.4507 52.8471ZM67.9907 66.5034C73.177 66.5034 77.991 65.1297 81.4459 61.1001C81.9649 62.3277 82.6992 63.3538 83.6699 64.1389C85.1143 65.3072 86.9751 65.8554 89.1587 65.8554C91.3994 65.8554 93.2888 65.2415 94.75 63.9603C96.1989 62.6899 97.124 60.8534 97.6223 58.595C99.6633 49.6986 99.7614 38.1184 97.157 30.8246C95.6154 26.4638 93.1044 23.1655 89.4373 20.9767C85.7916 18.8008 81.0939 17.7754 75.2627 17.7754C69.5592 17.7754 64.2341 18.9688 60.2972 21.1496C56.364 23.3284 53.6707 26.5935 53.6707 30.7274C53.6707 33.0016 54.5118 35.0363 56.1956 36.4886C57.865 37.9285 60.2627 38.7114 63.2387 38.7114C69.7296 38.7114 75.6687 35.5493 78.68 31.1481C78.7239 31.084 78.7585 31.0587 78.774 31.0492C78.7894 31.0398 78.8027 31.0356 78.8183 31.0339C78.8554 31.0297 78.9341 31.0398 79.0235 31.103C79.1119 31.1654 79.1583 31.2434 79.1726 31.301C79.1816 31.3369 79.1932 31.4125 79.1059 31.548C76.917 34.8618 72.5102 37.7749 65.9945 39.1068C58.3944 40.5983 52.3027 45.3998 52.3027 53.2634C52.3027 57.5275 54.0616 60.8793 56.9526 63.141C59.8167 65.3816 63.7236 66.5034 67.9907 66.5034Z" fill="#0EB400" stroke="black" stroke-width="2"/>
<path d="M23.7355 66.6872L23.7605 65.8874C25.0692 66.1091 26.392 66.2159 27.704 66.2159C38.1451 66.2159 49.1222 59.0752 51.2987 45.8667C52.5277 38.418 50.8035 31.4196 46.5271 26.2729C42.2446 21.1186 35.4846 17.9199 26.84 17.9199C23.8724 17.9199 20.1759 18.4112 15.9124 19.2377C14.1732 18.3355 12.3213 17.9919 10.568 17.9919C8.32606 17.9919 5.99397 18.5682 4.1897 19.6909C2.376 20.8194 1 22.5754 1 24.8959V49.5919C1 58.1023 1.21621 66.6351 2.0848 75.2498C2.35122 78.024 3.27123 80.6245 5.01183 82.5462C6.77479 84.4926 9.30299 85.6559 12.584 85.6559C15.865 85.6559 18.3932 84.4926 20.1562 82.5462C21.8965 80.6249 22.8165 78.0249 23.0831 75.2512C23.2995 73.158 23.6624 69.0277 23.7355 66.6872ZM13.6913 61.1871C15.9366 63.1888 18.5753 64.5467 21.353 65.3419C19.373 64.8541 17.7355 64.1631 16.2716 63.2297C15.3691 62.6543 14.5207 61.9791 13.6913 61.1871ZM23.3944 44.0602C26.8861 43.4018 29.8198 42.3698 33.0073 40.1593C33.0354 40.1885 33.0665 40.2269 33.0964 40.2758C33.1702 40.3968 33.1885 40.504 33.1832 40.5658C33.1803 40.5991 33.1725 40.6553 33.0678 40.7373C30.4295 42.7658 27.1429 43.9457 23.6306 44.6492C23.5692 44.6596 23.5429 44.6525 23.5403 44.6518L23.5402 44.6518L23.5399 44.6517C23.5375 44.6511 23.5336 44.6501 23.5241 44.642C23.4958 44.6176 23.4326 44.5361 23.3988 44.3784C23.3715 44.251 23.3774 44.1364 23.3944 44.0602Z" fill="#0EB400" stroke="black" stroke-width="2"/>
</svg>
