<svg width="1212" height="904" viewBox="0 0 1212 904" fill="none" xmlns="http://www.w3.org/2000/svg">
<rect x="1" y="1.15625" width="1210" height="166.799" rx="19.5" fill="white"/>
<rect x="1" y="1.15625" width="1210" height="166.799" rx="19.5" stroke="#A6A6A6"/>
<rect x="30.5" y="30.6562" width="60" height="60" rx="30" fill="#666666"/>
<path d="M111.474 49.2642V47.7727C112.595 47.7727 113.377 47.544 113.821 47.0866C114.265 46.6226 114.487 45.857 114.487 44.7898V41.9361C114.487 40.9219 114.6 40.0701 114.825 39.3807C115.057 38.6847 115.409 38.1278 115.879 37.7102C116.35 37.2926 116.946 36.991 117.669 36.8054C118.392 36.6198 119.243 36.527 120.224 36.527V38.8835C119.455 38.8835 118.856 38.9962 118.425 39.2216C117.994 39.447 117.692 39.7983 117.52 40.2756C117.354 40.7462 117.271 41.3494 117.271 42.0852V45.7045C117.271 46.215 117.195 46.6889 117.043 47.1264C116.89 47.5573 116.608 47.9318 116.197 48.25C115.786 48.5682 115.2 48.8168 114.438 48.9957C113.675 49.1747 112.688 49.2642 111.474 49.2642ZM120.224 61.892C119.243 61.892 118.392 61.7992 117.669 61.6136C116.946 61.428 116.35 61.1264 115.879 60.7088C115.409 60.2912 115.057 59.7344 114.825 59.0384C114.6 58.349 114.487 57.4972 114.487 56.483V53.6193C114.487 52.5587 114.265 51.7964 113.821 51.3324C113.377 50.8684 112.595 50.6364 111.474 50.6364V49.1548C112.688 49.1548 113.675 49.2443 114.438 49.4233C115.2 49.5956 115.786 49.8442 116.197 50.169C116.608 50.4872 116.89 50.8651 117.043 51.3026C117.195 51.7334 117.271 52.2041 117.271 52.7145V56.3338C117.271 57.063 117.354 57.6629 117.52 58.1335C117.692 58.6108 117.994 58.9621 118.425 59.1875C118.856 59.4195 119.455 59.5355 120.224 59.5355V61.892ZM111.474 50.6364V47.7727H114.229V50.6364H111.474ZM132.755 51.3224V42.3835H135.738V57.6562H132.815V55.0114H132.656C132.305 55.8267 131.741 56.5062 130.966 57.0497C130.197 57.5866 129.239 57.8551 128.092 57.8551C127.111 57.8551 126.243 57.6397 125.487 57.2088C124.738 56.7713 124.148 56.125 123.717 55.2699C123.293 54.4148 123.081 53.3575 123.081 52.098V42.3835H126.054V51.7401C126.054 52.7808 126.342 53.6094 126.919 54.2259C127.495 54.8423 128.244 55.1506 129.166 55.1506C129.723 55.1506 130.276 55.0114 130.826 54.733C131.383 54.4545 131.844 54.0336 132.208 53.4702C132.58 52.9067 132.762 52.1908 132.755 51.3224ZM151.178 46.1122L148.483 46.5895C148.37 46.2448 148.191 45.9167 147.946 45.6051C147.707 45.2936 147.383 45.0384 146.972 44.8395C146.561 44.6406 146.047 44.5412 145.43 44.5412C144.589 44.5412 143.886 44.7301 143.322 45.108C142.759 45.4792 142.477 45.9598 142.477 46.5497C142.477 47.0601 142.666 47.4711 143.044 47.7827C143.422 48.0942 144.032 48.3494 144.874 48.5483L147.3 49.1051C148.705 49.4299 149.752 49.9304 150.442 50.6065C151.131 51.2827 151.476 52.161 151.476 53.2415C151.476 54.1562 151.211 54.9716 150.68 55.6875C150.157 56.3968 149.424 56.9536 148.483 57.358C147.548 57.7623 146.464 57.9645 145.232 57.9645C143.521 57.9645 142.126 57.5999 141.045 56.8707C139.965 56.1349 139.302 55.0909 139.057 53.7386L141.93 53.3011C142.109 54.0502 142.477 54.617 143.034 55.0014C143.591 55.3793 144.317 55.5682 145.212 55.5682C146.186 55.5682 146.965 55.366 147.548 54.9616C148.132 54.5507 148.423 54.0502 148.423 53.4602C148.423 52.983 148.244 52.5819 147.886 52.2571C147.535 51.9323 146.995 51.687 146.266 51.5213L143.68 50.9545C142.255 50.6297 141.201 50.1127 140.518 49.4034C139.842 48.6941 139.504 47.7959 139.504 46.7088C139.504 45.8073 139.756 45.0185 140.26 44.3423C140.764 43.6662 141.46 43.1392 142.348 42.7614C143.236 42.3769 144.254 42.1847 145.401 42.1847C147.051 42.1847 148.35 42.5426 149.298 43.2585C150.246 43.9678 150.873 44.919 151.178 46.1122ZM161.327 57.9645C159.822 57.9645 158.526 57.643 157.439 57C156.359 56.3504 155.524 55.4389 154.934 54.2656C154.35 53.0857 154.059 51.7036 154.059 50.1193C154.059 48.5549 154.35 47.1761 154.934 45.983C155.524 44.7898 156.346 43.8584 157.4 43.1889C158.46 42.5194 159.7 42.1847 161.118 42.1847C161.98 42.1847 162.815 42.3272 163.624 42.6122C164.433 42.8973 165.158 43.3447 165.801 43.9545C166.444 44.5644 166.952 45.3565 167.323 46.331C167.694 47.2988 167.88 48.4754 167.88 49.8608V50.9148H155.739V48.6875H164.966C164.966 47.9053 164.807 47.2126 164.489 46.6094C164.171 45.9995 163.723 45.5189 163.147 45.1676C162.577 44.8163 161.907 44.6406 161.138 44.6406C160.303 44.6406 159.574 44.8461 158.951 45.2571C158.334 45.6615 157.857 46.1918 157.519 46.848C157.187 47.4976 157.022 48.2036 157.022 48.9659V50.706C157.022 51.7268 157.201 52.5952 157.559 53.3111C157.923 54.027 158.43 54.5739 159.08 54.9517C159.73 55.3229 160.489 55.5085 161.357 55.5085C161.92 55.5085 162.434 55.429 162.898 55.2699C163.362 55.1042 163.763 54.8589 164.101 54.5341C164.439 54.2093 164.698 53.8082 164.877 53.331L167.691 53.8381C167.465 54.6667 167.061 55.3925 166.478 56.0156C165.901 56.6321 165.175 57.1127 164.3 57.4574C163.432 57.7955 162.441 57.9645 161.327 57.9645ZM171.178 57.6562V42.3835H174.052V44.8097H174.211C174.489 43.9877 174.98 43.3414 175.683 42.8707C176.392 42.3935 177.194 42.1548 178.089 42.1548C178.274 42.1548 178.493 42.1615 178.745 42.1747C179.004 42.188 179.206 42.2045 179.352 42.2244V45.0682C179.232 45.035 179.02 44.9986 178.715 44.9588C178.41 44.9124 178.105 44.8892 177.8 44.8892C177.098 44.8892 176.471 45.0384 175.921 45.3366C175.378 45.6283 174.947 46.036 174.629 46.5597C174.31 47.0767 174.151 47.6667 174.151 48.3295V57.6562H171.178ZM198.599 37.2926V57.6562H195.775L185.424 42.7216H185.235V57.6562H182.163V37.2926H185.007L195.368 52.2472H195.556V37.2926H198.599ZM207.287 57.9943C206.319 57.9943 205.444 57.8153 204.662 57.4574C203.88 57.0928 203.26 56.5658 202.803 55.8764C202.352 55.187 202.126 54.3419 202.126 53.3409C202.126 52.4792 202.292 51.7699 202.624 51.2131C202.955 50.6562 203.402 50.2154 203.966 49.8906C204.529 49.5658 205.159 49.3205 205.855 49.1548C206.551 48.9891 207.26 48.8632 207.983 48.777C208.898 48.6709 209.64 48.5848 210.21 48.5185C210.78 48.4455 211.195 48.3295 211.453 48.1705C211.712 48.0114 211.841 47.7528 211.841 47.3949V47.3253C211.841 46.4569 211.596 45.7841 211.105 45.3068C210.621 44.8295 209.899 44.5909 208.938 44.5909C207.937 44.5909 207.148 44.813 206.571 45.2571C206.001 45.6946 205.607 46.1818 205.388 46.7188L202.594 46.0824C202.925 45.1544 203.409 44.4053 204.045 43.8352C204.688 43.2585 205.428 42.8409 206.263 42.5824C207.098 42.3172 207.976 42.1847 208.898 42.1847C209.508 42.1847 210.154 42.2576 210.837 42.4034C211.526 42.5426 212.169 42.8011 212.766 43.179C213.369 43.5568 213.863 44.0971 214.247 44.7997C214.632 45.4957 214.824 46.4006 214.824 47.5142V57.6562H211.92V55.5682H211.801C211.609 55.9527 211.321 56.3305 210.936 56.7017C210.552 57.0729 210.058 57.3812 209.455 57.6264C208.851 57.8717 208.129 57.9943 207.287 57.9943ZM207.933 55.608C208.755 55.608 209.458 55.4455 210.041 55.1207C210.631 54.7959 211.079 54.3717 211.384 53.848C211.695 53.3177 211.851 52.7509 211.851 52.1477V50.179C211.745 50.285 211.539 50.3845 211.234 50.4773C210.936 50.5634 210.595 50.6397 210.21 50.706C209.826 50.7656 209.451 50.822 209.087 50.875C208.722 50.9214 208.417 50.9612 208.172 50.9943C207.595 51.0672 207.068 51.1899 206.591 51.3622C206.12 51.5346 205.742 51.7831 205.457 52.108C205.179 52.4261 205.04 52.8504 205.04 53.3807C205.04 54.1165 205.312 54.6733 205.855 55.0511C206.399 55.4223 207.091 55.608 207.933 55.608ZM218.784 57.6562V42.3835H221.637V44.8693H221.826C222.145 44.0275 222.665 43.3712 223.387 42.9006C224.11 42.4233 224.975 42.1847 225.983 42.1847C227.003 42.1847 227.859 42.4233 228.548 42.9006C229.244 43.3778 229.758 44.0341 230.089 44.8693H230.248C230.613 44.054 231.193 43.4044 231.988 42.9205C232.784 42.4299 233.732 42.1847 234.832 42.1847C236.217 42.1847 237.348 42.6188 238.223 43.4872C239.104 44.3556 239.545 45.6648 239.545 47.4148V57.6562H236.572V47.6932C236.572 46.6591 236.29 45.91 235.727 45.446C235.163 44.982 234.491 44.75 233.708 44.75C232.741 44.75 231.988 45.0483 231.451 45.6449C230.914 46.2348 230.646 46.9938 230.646 47.9219V57.6562H227.683V47.5043C227.683 46.6757 227.424 46.0095 226.907 45.5057C226.39 45.0019 225.717 44.75 224.889 44.75C224.325 44.75 223.805 44.8991 223.328 45.1974C222.857 45.4891 222.476 45.8968 222.184 46.4205C221.899 46.9441 221.757 47.5507 221.757 48.2401V57.6562H218.784ZM250.112 57.9645C248.607 57.9645 247.312 57.643 246.224 57C245.144 56.3504 244.309 55.4389 243.719 54.2656C243.135 53.0857 242.844 51.7036 242.844 50.1193C242.844 48.5549 243.135 47.1761 243.719 45.983C244.309 44.7898 245.131 43.8584 246.185 43.1889C247.245 42.5194 248.485 42.1847 249.903 42.1847C250.765 42.1847 251.6 42.3272 252.409 42.6122C253.218 42.8973 253.944 43.3447 254.587 43.9545C255.23 44.5644 255.737 45.3565 256.108 46.331C256.479 47.2988 256.665 48.4754 256.665 49.8608V50.9148H244.524V48.6875H253.751C253.751 47.9053 253.592 47.2126 253.274 46.6094C252.956 45.9995 252.509 45.5189 251.932 45.1676C251.362 44.8163 250.692 44.6406 249.923 44.6406C249.088 44.6406 248.359 44.8461 247.736 45.2571C247.119 45.6615 246.642 46.1918 246.304 46.848C245.973 47.4976 245.807 48.2036 245.807 48.9659V50.706C245.807 51.7268 245.986 52.5952 246.344 53.3111C246.708 54.027 247.215 54.5739 247.865 54.9517C248.515 55.3229 249.274 55.5085 250.142 55.5085C250.705 55.5085 251.219 55.429 251.683 55.2699C252.147 55.1042 252.548 54.8589 252.886 54.5341C253.224 54.2093 253.483 53.8082 253.662 53.331L256.476 53.8381C256.25 54.6667 255.846 55.3925 255.263 56.0156C254.686 56.6321 253.96 57.1127 253.085 57.4574C252.217 57.7955 251.226 57.9645 250.112 57.9645ZM267.57 49.1548V50.6364C266.45 50.6364 265.667 50.8684 265.223 51.3324C264.779 51.7964 264.557 52.5587 264.557 53.6193V56.483C264.557 57.4972 264.441 58.349 264.209 59.0384C263.984 59.7344 263.636 60.2912 263.165 60.7088C262.694 61.1264 262.098 61.428 261.375 61.6136C260.653 61.7992 259.801 61.892 258.82 61.892V59.5355C259.589 59.5355 260.189 59.4195 260.62 59.1875C261.051 58.9621 261.349 58.6108 261.515 58.1335C261.687 57.6629 261.773 57.063 261.773 56.3338V52.7145C261.773 52.2041 261.849 51.7334 262.002 51.3026C262.154 50.8651 262.436 50.4872 262.847 50.169C263.258 49.8442 263.845 49.5956 264.607 49.4233C265.369 49.2443 266.357 49.1548 267.57 49.1548ZM258.82 36.527C259.801 36.527 260.653 36.6198 261.375 36.8054C262.098 36.991 262.694 37.2926 263.165 37.7102C263.636 38.1278 263.984 38.6847 264.209 39.3807C264.441 40.0701 264.557 40.9219 264.557 41.9361V44.7898C264.557 45.857 264.779 46.6226 265.223 47.0866C265.667 47.544 266.45 47.7727 267.57 47.7727V49.2642C266.357 49.2642 265.369 49.1747 264.607 48.9957C263.845 48.8168 263.258 48.5682 262.847 48.25C262.436 47.9318 262.154 47.5573 262.002 47.1264C261.849 46.6889 261.773 46.215 261.773 45.7045V42.0852C261.773 41.3494 261.687 40.7462 261.515 40.2756C261.349 39.7983 261.051 39.447 260.62 39.2216C260.189 38.9962 259.589 38.8835 258.82 38.8835V36.527ZM267.57 47.7727V50.6364H264.816V47.7727H267.57Z" fill="black"/>
<path d="M122.922 74.5296C123.733 72.0318 127.267 72.0318 128.078 74.5296L129.761 79.7075C130.124 80.8245 131.165 81.5808 132.339 81.5808H137.784C140.41 81.5808 141.502 84.9416 139.377 86.4854L134.973 89.6855C134.022 90.3758 133.625 91.5996 133.988 92.7166L135.67 97.8945C136.482 100.392 133.623 102.469 131.498 100.926L127.094 97.7256C126.143 97.0352 124.857 97.0352 123.906 97.7256L119.502 100.926C117.377 102.469 114.518 100.392 115.33 97.8945L117.012 92.7166C117.375 91.5996 116.978 90.3758 116.027 89.6855L111.623 86.4854C109.498 84.9416 110.59 81.5808 113.216 81.5808H118.661C119.835 81.5808 120.876 80.8245 121.239 79.7075L122.922 74.5296Z" fill="#0EB400"/>
<path d="M156.922 74.5296C157.733 72.0318 161.267 72.0318 162.078 74.5296L163.761 79.7075C164.124 80.8245 165.165 81.5808 166.339 81.5808H171.784C174.41 81.5808 175.502 84.9416 173.377 86.4854L168.973 89.6855C168.022 90.3758 167.625 91.5996 167.988 92.7166L169.67 97.8945C170.482 100.392 167.623 102.469 165.498 100.926L161.094 97.7256C160.143 97.0352 158.857 97.0352 157.906 97.7256L153.502 100.926C151.377 102.469 148.518 100.392 149.33 97.8945L151.012 92.7166C151.375 91.5996 150.978 90.3758 150.027 89.6855L145.623 86.4854C143.498 84.9416 144.59 81.5808 147.216 81.5808H152.661C153.835 81.5808 154.876 80.8245 155.239 79.7075L156.922 74.5296Z" fill="#0EB400"/>
<path d="M190.922 74.5296C191.733 72.0318 195.267 72.0318 196.078 74.5296L197.761 79.7075C198.124 80.8245 199.165 81.5808 200.339 81.5808H205.784C208.41 81.5808 209.502 84.9416 207.377 86.4854L202.973 89.6855C202.022 90.3758 201.625 91.5996 201.988 92.7166L203.67 97.8945C204.482 100.392 201.623 102.469 199.498 100.926L195.094 97.7256C194.143 97.0352 192.857 97.0352 191.906 97.7256L187.502 100.926C185.377 102.469 182.518 100.392 183.33 97.8945L185.012 92.7166C185.375 91.5996 184.978 90.3758 184.027 89.6855L179.623 86.4854C177.498 84.9416 178.59 81.5808 181.216 81.5808H186.661C187.835 81.5808 188.876 80.8245 189.239 79.7075L190.922 74.5296Z" fill="#0EB400"/>
<path d="M224.922 74.5296C225.733 72.0318 229.267 72.0318 230.078 74.5296L231.761 79.7075C232.124 80.8245 233.165 81.5808 234.339 81.5808H239.784C242.41 81.5808 243.502 84.9416 241.377 86.4854L236.973 89.6855C236.022 90.3758 235.625 91.5996 235.988 92.7166L237.67 97.8945C238.482 100.392 235.623 102.469 233.498 100.926L229.094 97.7256C228.143 97.0352 226.857 97.0352 225.906 97.7256L221.502 100.926C219.377 102.469 216.518 100.392 217.33 97.8945L219.012 92.7166C219.375 91.5996 218.978 90.3758 218.027 89.6855L213.623 86.4854C211.498 84.9416 212.59 81.5808 215.216 81.5808H220.661C221.835 81.5808 222.876 80.8245 223.239 79.7075L224.922 74.5296Z" fill="#0EB400"/>
<path d="M258.922 74.5296C259.733 72.0318 263.267 72.0318 264.078 74.5296L265.761 79.7075C266.124 80.8245 267.165 81.5808 268.339 81.5808H273.784C276.41 81.5808 277.502 84.9416 275.377 86.4854L270.973 89.6855C270.022 90.3758 269.625 91.5996 269.988 92.7166L271.67 97.8945C272.482 100.392 269.623 102.469 267.498 100.926L263.094 97.7256C262.143 97.0352 260.857 97.0352 259.906 97.7256L255.502 100.926C253.377 102.469 250.518 100.392 251.33 97.8945L253.012 92.7166C253.375 91.5996 252.978 90.3758 252.027 89.6855L247.623 86.4854C245.498 84.9416 246.59 81.5808 249.216 81.5808H254.661C255.835 81.5808 256.876 80.8245 257.239 79.7075L258.922 74.5296Z" fill="#0EB400"/>
<path d="M127.492 112.608H129.484V134.352H127.492V112.608ZM112.948 127.464H114.748C118.372 127.464 121.612 127.32 125.452 126.696L125.668 128.328C121.732 128.976 118.468 129.12 114.748 129.12H112.948V127.464ZM112.9 114.648H122.932V122.4H114.94V128.088H112.948V120.768H120.916V116.28H112.9V114.648ZM138.698 125.568H140.69V134.328H138.698V125.568ZM146.45 125.568H148.466V134.328H146.45V125.568ZM133.754 125.304H153.434V126.936H133.754V125.304ZM136.226 113.472H138.218V116.376H148.946V113.472H150.914V122.76H136.226V113.472ZM138.218 118.008V121.104H148.946V118.008H138.218ZM171.648 112.608H173.64V134.352H171.648V112.608ZM157.104 127.464H158.904C162.528 127.464 165.768 127.32 169.608 126.696L169.824 128.328C165.888 128.976 162.624 129.12 158.904 129.12H157.104V127.464ZM157.056 114.648H167.088V122.4H159.096V128.088H157.104V120.768H165.072V116.28H157.056V114.648ZM182.854 125.568H184.846V134.328H182.854V125.568ZM190.606 125.568H192.622V134.328H190.606V125.568ZM177.91 125.304H197.59V126.936H177.91V125.304ZM180.382 113.472H182.374V116.376H193.102V113.472H195.07V122.76H180.382V113.472ZM182.374 118.008V121.104H193.102V118.008H182.374ZM215.805 112.608H217.797V134.352H215.805V112.608ZM201.261 127.464H203.061C206.685 127.464 209.925 127.32 213.765 126.696L213.981 128.328C210.045 128.976 206.781 129.12 203.061 129.12H201.261V127.464ZM201.213 114.648H211.245V122.4H203.253V128.088H201.261V120.768H209.229V116.28H201.213V114.648ZM227.011 125.568H229.003V134.328H227.011V125.568ZM234.763 125.568H236.779V134.328H234.763V125.568ZM222.067 125.304H241.747V126.936H222.067V125.304ZM224.539 113.472H226.531V116.376H237.259V113.472H239.227V122.76H224.539V113.472ZM226.531 118.008V121.104H237.259V118.008H226.531ZM259.937 112.632H261.953V124.56H259.937V112.632ZM245.273 122.472H247.025C250.961 122.472 253.865 122.352 257.345 121.776L257.561 123.432C253.985 123.984 251.057 124.104 247.025 124.104H245.273V122.472ZM245.225 113.688H255.065V119.568H247.217V123.552H245.273V118.008H253.121V115.296H245.225V113.688ZM247.913 125.64H249.881V128.184H259.985V125.64H261.953V134.04H247.913V125.64ZM249.881 129.768V132.408H259.985V129.768H249.881ZM266.223 125.544H285.903V127.176H266.223V125.544ZM271.311 126.432H273.327V134.328H271.311V126.432ZM278.775 126.432H280.767V134.328H278.775V126.432ZM268.575 113.472H283.503V119.064H270.639V122.784H268.623V117.528H281.511V115.08H268.575V113.472ZM268.623 121.728H284.007V123.336H268.623V121.728ZM304.069 112.608H306.061V134.352H304.069V112.608ZM289.549 114.456H291.517V120.192H297.781V114.456H299.773V129.12H289.549V114.456ZM291.517 121.776V127.488H297.781V121.776H291.517ZM310.379 125.544H330.059V127.176H310.379V125.544ZM315.467 126.432H317.483V134.328H315.467V126.432ZM322.931 126.432H324.923V134.328H322.931V126.432ZM312.731 113.472H327.659V119.064H314.795V122.784H312.779V117.528H325.667V115.08H312.731V113.472ZM312.779 121.728H328.163V123.336H312.779V121.728ZM348.225 112.608H350.217V134.352H348.225V112.608ZM333.705 114.456H335.673V120.192H341.937V114.456H343.929V129.12H333.705V114.456ZM335.673 121.776V127.488H341.937V121.776H335.673ZM360.319 124.488H362.287V127.512H360.319V124.488ZM366.463 124.488H368.431V127.512H366.463V124.488ZM354.535 123.216H374.215V124.824H354.535V123.216ZM357.151 126.432H359.119V128.76H369.703V126.432H371.671V134.04H357.151V126.432ZM359.119 130.272V132.48H369.703V130.272H359.119ZM357.031 113.088H371.671V118.008H359.047V120.936H357.079V116.544H369.727V114.576H357.031V113.088ZM357.079 120.024H372.151V121.536H357.079V120.024ZM392.43 112.608H394.422V134.352H392.43V112.608ZM377.886 127.464H379.686C383.31 127.464 386.55 127.32 390.39 126.696L390.606 128.328C386.67 128.976 383.406 129.12 379.686 129.12H377.886V127.464ZM377.838 114.648H387.87V122.4H379.878V128.088H377.886V120.768H385.854V116.28H377.838V114.648ZM401.308 112.944H403.276V114.96H413.764V112.944H415.756V120.096H401.308V112.944ZM403.276 116.496V118.56H413.764V116.496H403.276ZM398.692 121.872H418.3V123.504H398.692V121.872ZM401.068 125.616H415.804V130.44H403.084V133.128H401.116V129H413.836V127.128H401.068V125.616ZM401.116 132.552H416.452V134.088H401.116V132.552ZM404.044 122.304H406.012V126.336H404.044V122.304ZM411.148 122.304H413.116V126.336H411.148V122.304Z" fill="black"/>
<rect x="1" y="184.956" width="1210" height="166.799" rx="19.5" fill="white"/>
<rect x="1" y="184.956" width="1210" height="166.799" rx="19.5" stroke="#A6A6A6"/>
<rect x="30.5" y="214.456" width="60" height="60" rx="30" fill="#666666"/>
<path d="M111.474 233.064V231.573C112.595 231.573 113.377 231.344 113.821 230.886C114.265 230.422 114.487 229.657 114.487 228.59V225.736C114.487 224.722 114.6 223.87 114.825 223.18C115.057 222.484 115.409 221.928 115.879 221.51C116.35 221.092 116.946 220.791 117.669 220.605C118.392 220.42 119.243 220.327 120.224 220.327V222.683C119.455 222.683 118.856 222.796 118.425 223.021C117.994 223.247 117.692 223.598 117.52 224.075C117.354 224.546 117.271 225.149 117.271 225.885V229.504C117.271 230.015 117.195 230.489 117.043 230.926C116.89 231.357 116.608 231.732 116.197 232.05C115.786 232.368 115.2 232.617 114.438 232.796C113.675 232.975 112.688 233.064 111.474 233.064ZM120.224 245.692C119.243 245.692 118.392 245.599 117.669 245.413C116.946 245.228 116.35 244.926 115.879 244.509C115.409 244.091 115.057 243.534 114.825 242.838C114.6 242.149 114.487 241.297 114.487 240.283V237.419C114.487 236.359 114.265 235.596 113.821 235.132C113.377 234.668 112.595 234.436 111.474 234.436V232.955C112.688 232.955 113.675 233.044 114.438 233.223C115.2 233.395 115.786 233.644 116.197 233.969C116.608 234.287 116.89 234.665 117.043 235.102C117.195 235.533 117.271 236.004 117.271 236.514V240.134C117.271 240.863 117.354 241.463 117.52 241.933C117.692 242.411 117.994 242.762 118.425 242.987C118.856 243.219 119.455 243.335 120.224 243.335V245.692ZM111.474 234.436V231.573H114.229V234.436H111.474ZM132.755 235.122V226.183H135.738V241.456H132.815V238.811H132.656C132.305 239.627 131.741 240.306 130.966 240.85C130.197 241.386 129.239 241.655 128.092 241.655C127.111 241.655 126.243 241.439 125.487 241.009C124.738 240.571 124.148 239.925 123.717 239.07C123.293 238.215 123.081 237.157 123.081 235.898V226.183H126.054V235.54C126.054 236.581 126.342 237.409 126.919 238.026C127.495 238.642 128.244 238.95 129.166 238.95C129.723 238.95 130.276 238.811 130.826 238.533C131.383 238.254 131.844 237.833 132.208 237.27C132.58 236.707 132.762 235.991 132.755 235.122ZM151.178 229.912L148.483 230.389C148.37 230.045 148.191 229.716 147.946 229.405C147.707 229.093 147.383 228.838 146.972 228.639C146.561 228.44 146.047 228.341 145.43 228.341C144.589 228.341 143.886 228.53 143.322 228.908C142.759 229.279 142.477 229.76 142.477 230.35C142.477 230.86 142.666 231.271 143.044 231.582C143.422 231.894 144.032 232.149 144.874 232.348L147.3 232.905C148.705 233.23 149.752 233.73 150.442 234.406C151.131 235.082 151.476 235.961 151.476 237.041C151.476 237.956 151.211 238.771 150.68 239.487C150.157 240.197 149.424 240.753 148.483 241.158C147.548 241.562 146.464 241.764 145.232 241.764C143.521 241.764 142.126 241.4 141.045 240.671C139.965 239.935 139.302 238.891 139.057 237.538L141.93 237.101C142.109 237.85 142.477 238.417 143.034 238.801C143.591 239.179 144.317 239.368 145.212 239.368C146.186 239.368 146.965 239.166 147.548 238.761C148.132 238.35 148.423 237.85 148.423 237.26C148.423 236.783 148.244 236.382 147.886 236.057C147.535 235.732 146.995 235.487 146.266 235.321L143.68 234.754C142.255 234.43 141.201 233.912 140.518 233.203C139.842 232.494 139.504 231.596 139.504 230.509C139.504 229.607 139.756 228.818 140.26 228.142C140.764 227.466 141.46 226.939 142.348 226.561C143.236 226.177 144.254 225.984 145.401 225.984C147.051 225.984 148.35 226.342 149.298 227.058C150.246 227.768 150.873 228.719 151.178 229.912ZM161.327 241.764C159.822 241.764 158.526 241.443 157.439 240.8C156.359 240.15 155.524 239.239 154.934 238.065C154.35 236.886 154.059 235.503 154.059 233.919C154.059 232.355 154.35 230.976 154.934 229.783C155.524 228.59 156.346 227.658 157.4 226.989C158.46 226.319 159.7 225.984 161.118 225.984C161.98 225.984 162.815 226.127 163.624 226.412C164.433 226.697 165.158 227.145 165.801 227.754C166.444 228.364 166.952 229.156 167.323 230.131C167.694 231.099 167.88 232.275 167.88 233.661V234.715H155.739V232.487H164.966C164.966 231.705 164.807 231.012 164.489 230.409C164.171 229.799 163.723 229.319 163.147 228.967C162.577 228.616 161.907 228.44 161.138 228.44C160.303 228.44 159.574 228.646 158.951 229.057C158.334 229.461 157.857 229.992 157.519 230.648C157.187 231.297 157.022 232.003 157.022 232.766V234.506C157.022 235.527 157.201 236.395 157.559 237.111C157.923 237.827 158.43 238.374 159.08 238.752C159.73 239.123 160.489 239.308 161.357 239.308C161.92 239.308 162.434 239.229 162.898 239.07C163.362 238.904 163.763 238.659 164.101 238.334C164.439 238.009 164.698 237.608 164.877 237.131L167.691 237.638C167.465 238.466 167.061 239.192 166.478 239.815C165.901 240.432 165.175 240.912 164.3 241.257C163.432 241.595 162.441 241.764 161.327 241.764ZM171.178 241.456V226.183H174.052V228.609H174.211C174.489 227.787 174.98 227.141 175.683 226.671C176.392 226.193 177.194 225.955 178.089 225.955C178.274 225.955 178.493 225.961 178.745 225.975C179.004 225.988 179.206 226.004 179.352 226.024V228.868C179.232 228.835 179.02 228.798 178.715 228.759C178.41 228.712 178.105 228.689 177.8 228.689C177.098 228.689 176.471 228.838 175.921 229.136C175.378 229.428 174.947 229.836 174.629 230.359C174.31 230.877 174.151 231.466 174.151 232.129V241.456H171.178ZM198.599 221.092V241.456H195.775L185.424 226.521H185.235V241.456H182.163V221.092H185.007L195.368 236.047H195.556V221.092H198.599ZM207.287 241.794C206.319 241.794 205.444 241.615 204.662 241.257C203.88 240.893 203.26 240.366 202.803 239.676C202.352 238.987 202.126 238.142 202.126 237.141C202.126 236.279 202.292 235.57 202.624 235.013C202.955 234.456 203.402 234.015 203.966 233.69C204.529 233.366 205.159 233.12 205.855 232.955C206.551 232.789 207.26 232.663 207.983 232.577C208.898 232.471 209.64 232.385 210.21 232.318C210.78 232.245 211.195 232.129 211.453 231.97C211.712 231.811 211.841 231.553 211.841 231.195V231.125C211.841 230.257 211.596 229.584 211.105 229.107C210.621 228.629 209.899 228.391 208.938 228.391C207.937 228.391 207.148 228.613 206.571 229.057C206.001 229.494 205.607 229.982 205.388 230.519L202.594 229.882C202.925 228.954 203.409 228.205 204.045 227.635C204.688 227.058 205.428 226.641 206.263 226.382C207.098 226.117 207.976 225.984 208.898 225.984C209.508 225.984 210.154 226.057 210.837 226.203C211.526 226.342 212.169 226.601 212.766 226.979C213.369 227.357 213.863 227.897 214.247 228.6C214.632 229.296 214.824 230.2 214.824 231.314V241.456H211.92V239.368H211.801C211.609 239.752 211.321 240.13 210.936 240.502C210.552 240.873 210.058 241.181 209.455 241.426C208.851 241.671 208.129 241.794 207.287 241.794ZM207.933 239.408C208.755 239.408 209.458 239.245 210.041 238.921C210.631 238.596 211.079 238.171 211.384 237.648C211.695 237.118 211.851 236.551 211.851 235.948V233.979C211.745 234.085 211.539 234.184 211.234 234.277C210.936 234.363 210.595 234.439 210.21 234.506C209.826 234.565 209.451 234.622 209.087 234.675C208.722 234.721 208.417 234.761 208.172 234.794C207.595 234.867 207.068 234.99 206.591 235.162C206.12 235.334 205.742 235.583 205.457 235.908C205.179 236.226 205.04 236.65 205.04 237.18C205.04 237.916 205.312 238.473 205.855 238.851C206.399 239.222 207.091 239.408 207.933 239.408ZM218.784 241.456V226.183H221.637V228.669H221.826C222.145 227.827 222.665 227.171 223.387 226.7C224.11 226.223 224.975 225.984 225.983 225.984C227.003 225.984 227.859 226.223 228.548 226.7C229.244 227.178 229.758 227.834 230.089 228.669H230.248C230.613 227.854 231.193 227.204 231.988 226.72C232.784 226.23 233.732 225.984 234.832 225.984C236.217 225.984 237.348 226.419 238.223 227.287C239.104 228.155 239.545 229.465 239.545 231.215V241.456H236.572V231.493C236.572 230.459 236.29 229.71 235.727 229.246C235.163 228.782 234.491 228.55 233.708 228.55C232.741 228.55 231.988 228.848 231.451 229.445C230.914 230.035 230.646 230.794 230.646 231.722V241.456H227.683V231.304C227.683 230.475 227.424 229.809 226.907 229.305C226.39 228.802 225.717 228.55 224.889 228.55C224.325 228.55 223.805 228.699 223.328 228.997C222.857 229.289 222.476 229.697 222.184 230.22C221.899 230.744 221.757 231.35 221.757 232.04V241.456H218.784ZM250.112 241.764C248.607 241.764 247.312 241.443 246.224 240.8C245.144 240.15 244.309 239.239 243.719 238.065C243.135 236.886 242.844 235.503 242.844 233.919C242.844 232.355 243.135 230.976 243.719 229.783C244.309 228.59 245.131 227.658 246.185 226.989C247.245 226.319 248.485 225.984 249.903 225.984C250.765 225.984 251.6 226.127 252.409 226.412C253.218 226.697 253.944 227.145 254.587 227.754C255.23 228.364 255.737 229.156 256.108 230.131C256.479 231.099 256.665 232.275 256.665 233.661V234.715H244.524V232.487H253.751C253.751 231.705 253.592 231.012 253.274 230.409C252.956 229.799 252.509 229.319 251.932 228.967C251.362 228.616 250.692 228.44 249.923 228.44C249.088 228.44 248.359 228.646 247.736 229.057C247.119 229.461 246.642 229.992 246.304 230.648C245.973 231.297 245.807 232.003 245.807 232.766V234.506C245.807 235.527 245.986 236.395 246.344 237.111C246.708 237.827 247.215 238.374 247.865 238.752C248.515 239.123 249.274 239.308 250.142 239.308C250.705 239.308 251.219 239.229 251.683 239.07C252.147 238.904 252.548 238.659 252.886 238.334C253.224 238.009 253.483 237.608 253.662 237.131L256.476 237.638C256.25 238.466 255.846 239.192 255.263 239.815C254.686 240.432 253.96 240.912 253.085 241.257C252.217 241.595 251.226 241.764 250.112 241.764ZM267.57 232.955V234.436C266.45 234.436 265.667 234.668 265.223 235.132C264.779 235.596 264.557 236.359 264.557 237.419V240.283C264.557 241.297 264.441 242.149 264.209 242.838C263.984 243.534 263.636 244.091 263.165 244.509C262.694 244.926 262.098 245.228 261.375 245.413C260.653 245.599 259.801 245.692 258.82 245.692V243.335C259.589 243.335 260.189 243.219 260.62 242.987C261.051 242.762 261.349 242.411 261.515 241.933C261.687 241.463 261.773 240.863 261.773 240.134V236.514C261.773 236.004 261.849 235.533 262.002 235.102C262.154 234.665 262.436 234.287 262.847 233.969C263.258 233.644 263.845 233.395 264.607 233.223C265.369 233.044 266.357 232.955 267.57 232.955ZM258.82 220.327C259.801 220.327 260.653 220.42 261.375 220.605C262.098 220.791 262.694 221.092 263.165 221.51C263.636 221.928 263.984 222.484 264.209 223.18C264.441 223.87 264.557 224.722 264.557 225.736V228.59C264.557 229.657 264.779 230.422 265.223 230.886C265.667 231.344 266.45 231.573 267.57 231.573V233.064C266.357 233.064 265.369 232.975 264.607 232.796C263.845 232.617 263.258 232.368 262.847 232.05C262.436 231.732 262.154 231.357 262.002 230.926C261.849 230.489 261.773 230.015 261.773 229.504V225.885C261.773 225.149 261.687 224.546 261.515 224.075C261.349 223.598 261.051 223.247 260.62 223.021C260.189 222.796 259.589 222.683 258.82 222.683V220.327ZM267.57 231.573V234.436H264.816V231.573H267.57Z" fill="black"/>
<path d="M122.922 258.329C123.733 255.832 127.267 255.832 128.078 258.329L129.761 263.507C130.124 264.624 131.165 265.381 132.339 265.381H137.784C140.41 265.381 141.502 268.741 139.377 270.285L134.973 273.485C134.022 274.176 133.625 275.399 133.988 276.516L135.67 281.694C136.482 284.192 133.623 286.269 131.498 284.725L127.094 281.525C126.143 280.835 124.857 280.835 123.906 281.525L119.502 284.725C117.377 286.269 114.518 284.192 115.33 281.694L117.012 276.516C117.375 275.399 116.978 274.176 116.027 273.485L111.623 270.285C109.498 268.741 110.59 265.381 113.216 265.381H118.661C119.835 265.381 120.876 264.624 121.239 263.507L122.922 258.329Z" fill="#0EB400"/>
<path d="M156.922 258.329C157.733 255.832 161.267 255.832 162.078 258.329L163.761 263.507C164.124 264.624 165.165 265.381 166.339 265.381H171.784C174.41 265.381 175.502 268.741 173.377 270.285L168.973 273.485C168.022 274.176 167.625 275.399 167.988 276.516L169.67 281.694C170.482 284.192 167.623 286.269 165.498 284.725L161.094 281.525C160.143 280.835 158.857 280.835 157.906 281.525L153.502 284.725C151.377 286.269 148.518 284.192 149.33 281.694L151.012 276.516C151.375 275.399 150.978 274.176 150.027 273.485L145.623 270.285C143.498 268.741 144.59 265.381 147.216 265.381H152.661C153.835 265.381 154.876 264.624 155.239 263.507L156.922 258.329Z" fill="#0EB400"/>
<path d="M190.922 258.329C191.733 255.832 195.267 255.832 196.078 258.329L197.761 263.507C198.124 264.624 199.165 265.381 200.339 265.381H205.784C208.41 265.381 209.502 268.741 207.377 270.285L202.973 273.485C202.022 274.176 201.625 275.399 201.988 276.516L203.67 281.694C204.482 284.192 201.623 286.269 199.498 284.725L195.094 281.525C194.143 280.835 192.857 280.835 191.906 281.525L187.502 284.725C185.377 286.269 182.518 284.192 183.33 281.694L185.012 276.516C185.375 275.399 184.978 274.176 184.027 273.485L179.623 270.285C177.498 268.741 178.59 265.381 181.216 265.381H186.661C187.835 265.381 188.876 264.624 189.239 263.507L190.922 258.329Z" fill="#0EB400"/>
<path d="M224.922 258.329C225.733 255.832 229.267 255.832 230.078 258.329L231.761 263.507C232.124 264.624 233.165 265.381 234.339 265.381H239.784C242.41 265.381 243.502 268.741 241.377 270.285L236.973 273.485C236.022 274.176 235.625 275.399 235.988 276.516L237.67 281.694C238.482 284.192 235.623 286.269 233.498 284.725L229.094 281.525C228.143 280.835 226.857 280.835 225.906 281.525L221.502 284.725C219.377 286.269 216.518 284.192 217.33 281.694L219.012 276.516C219.375 275.399 218.978 274.176 218.027 273.485L213.623 270.285C211.498 268.741 212.59 265.381 215.216 265.381H220.661C221.835 265.381 222.876 264.624 223.239 263.507L224.922 258.329Z" fill="#0EB400"/>
<path d="M258.922 258.329C259.733 255.832 263.267 255.832 264.078 258.329L265.761 263.507C266.124 264.624 267.165 265.381 268.339 265.381H273.784C276.41 265.381 277.502 268.741 275.377 270.285L270.973 273.485C270.022 274.176 269.625 275.399 269.988 276.516L271.67 281.694C272.482 284.192 269.623 286.269 267.498 284.725L263.094 281.525C262.143 280.835 260.857 280.835 259.906 281.525L255.502 284.725C253.377 286.269 250.518 284.192 251.33 281.694L253.012 276.516C253.375 275.399 252.978 274.176 252.027 273.485L247.623 270.285C245.498 268.741 246.59 265.381 249.216 265.381H254.661C255.835 265.381 256.876 264.624 257.239 263.507L258.922 258.329Z" fill="#0EB400"/>
<path d="M127.492 296.408H129.484V318.152H127.492V296.408ZM112.948 311.264H114.748C118.372 311.264 121.612 311.12 125.452 310.496L125.668 312.128C121.732 312.776 118.468 312.92 114.748 312.92H112.948V311.264ZM112.9 298.448H122.932V306.2H114.94V311.888H112.948V304.568H120.916V300.08H112.9V298.448ZM138.698 309.368H140.69V318.128H138.698V309.368ZM146.45 309.368H148.466V318.128H146.45V309.368ZM133.754 309.104H153.434V310.736H133.754V309.104ZM136.226 297.272H138.218V300.176H148.946V297.272H150.914V306.56H136.226V297.272ZM138.218 301.808V304.904H148.946V301.808H138.218ZM171.648 296.408H173.64V318.152H171.648V296.408ZM157.104 311.264H158.904C162.528 311.264 165.768 311.12 169.608 310.496L169.824 312.128C165.888 312.776 162.624 312.92 158.904 312.92H157.104V311.264ZM157.056 298.448H167.088V306.2H159.096V311.888H157.104V304.568H165.072V300.08H157.056V298.448ZM182.854 309.368H184.846V318.128H182.854V309.368ZM190.606 309.368H192.622V318.128H190.606V309.368ZM177.91 309.104H197.59V310.736H177.91V309.104ZM180.382 297.272H182.374V300.176H193.102V297.272H195.07V306.56H180.382V297.272ZM182.374 301.808V304.904H193.102V301.808H182.374ZM215.805 296.408H217.797V318.152H215.805V296.408ZM201.261 311.264H203.061C206.685 311.264 209.925 311.12 213.765 310.496L213.981 312.128C210.045 312.776 206.781 312.92 203.061 312.92H201.261V311.264ZM201.213 298.448H211.245V306.2H203.253V311.888H201.261V304.568H209.229V300.08H201.213V298.448ZM227.011 309.368H229.003V318.128H227.011V309.368ZM234.763 309.368H236.779V318.128H234.763V309.368ZM222.067 309.104H241.747V310.736H222.067V309.104ZM224.539 297.272H226.531V300.176H237.259V297.272H239.227V306.56H224.539V297.272ZM226.531 301.808V304.904H237.259V301.808H226.531ZM259.937 296.432H261.953V308.36H259.937V296.432ZM245.273 306.272H247.025C250.961 306.272 253.865 306.152 257.345 305.576L257.561 307.232C253.985 307.784 251.057 307.904 247.025 307.904H245.273V306.272ZM245.225 297.488H255.065V303.368H247.217V307.352H245.273V301.808H253.121V299.096H245.225V297.488ZM247.913 309.44H249.881V311.984H259.985V309.44H261.953V317.84H247.913V309.44ZM249.881 313.568V316.208H259.985V313.568H249.881ZM266.223 309.344H285.903V310.976H266.223V309.344ZM271.311 310.232H273.327V318.128H271.311V310.232ZM278.775 310.232H280.767V318.128H278.775V310.232ZM268.575 297.272H283.503V302.864H270.639V306.584H268.623V301.328H281.511V298.88H268.575V297.272ZM268.623 305.528H284.007V307.136H268.623V305.528ZM304.069 296.408H306.061V318.152H304.069V296.408ZM289.549 298.256H291.517V303.992H297.781V298.256H299.773V312.92H289.549V298.256ZM291.517 305.576V311.288H297.781V305.576H291.517ZM310.379 309.344H330.059V310.976H310.379V309.344ZM315.467 310.232H317.483V318.128H315.467V310.232ZM322.931 310.232H324.923V318.128H322.931V310.232ZM312.731 297.272H327.659V302.864H314.795V306.584H312.779V301.328H325.667V298.88H312.731V297.272ZM312.779 305.528H328.163V307.136H312.779V305.528ZM348.225 296.408H350.217V318.152H348.225V296.408ZM333.705 298.256H335.673V303.992H341.937V298.256H343.929V312.92H333.705V298.256ZM335.673 305.576V311.288H341.937V305.576H335.673ZM360.319 308.288H362.287V311.312H360.319V308.288ZM366.463 308.288H368.431V311.312H366.463V308.288ZM354.535 307.016H374.215V308.624H354.535V307.016ZM357.151 310.232H359.119V312.56H369.703V310.232H371.671V317.84H357.151V310.232ZM359.119 314.072V316.28H369.703V314.072H359.119ZM357.031 296.888H371.671V301.808H359.047V304.736H357.079V300.344H369.727V298.376H357.031V296.888ZM357.079 303.824H372.151V305.336H357.079V303.824ZM392.43 296.408H394.422V318.152H392.43V296.408ZM377.886 311.264H379.686C383.31 311.264 386.55 311.12 390.39 310.496L390.606 312.128C386.67 312.776 383.406 312.92 379.686 312.92H377.886V311.264ZM377.838 298.448H387.87V306.2H379.878V311.888H377.886V304.568H385.854V300.08H377.838V298.448ZM401.308 296.744H403.276V298.76H413.764V296.744H415.756V303.896H401.308V296.744ZM403.276 300.296V302.36H413.764V300.296H403.276ZM398.692 305.672H418.3V307.304H398.692V305.672ZM401.068 309.416H415.804V314.24H403.084V316.928H401.116V312.8H413.836V310.928H401.068V309.416ZM401.116 316.352H416.452V317.888H401.116V316.352ZM404.044 306.104H406.012V310.136H404.044V306.104ZM411.148 306.104H413.116V310.136H411.148V306.104Z" fill="black"/>
<rect x="1" y="368.755" width="1210" height="166.799" rx="19.5" fill="white"/>
<rect x="1" y="368.755" width="1210" height="166.799" rx="19.5" stroke="#A6A6A6"/>
<rect x="30.5" y="398.255" width="60" height="60" rx="30" fill="#666666"/>
<path d="M111.474 416.863V415.371C112.595 415.371 113.377 415.143 113.821 414.685C114.265 414.221 114.487 413.456 114.487 412.388V409.535C114.487 408.521 114.6 407.669 114.825 406.979C115.057 406.283 115.409 405.726 115.879 405.309C116.35 404.891 116.946 404.59 117.669 404.404C118.392 404.218 119.243 404.126 120.224 404.126V406.482C119.455 406.482 118.856 406.595 118.425 406.82C117.994 407.046 117.692 407.397 117.52 407.874C117.354 408.345 117.271 408.948 117.271 409.684V413.303C117.271 413.814 117.195 414.288 117.043 414.725C116.89 415.156 116.608 415.53 116.197 415.849C115.786 416.167 115.2 416.415 114.438 416.594C113.675 416.773 112.688 416.863 111.474 416.863ZM120.224 429.491C119.243 429.491 118.392 429.398 117.669 429.212C116.946 429.027 116.35 428.725 115.879 428.307C115.409 427.89 115.057 427.333 114.825 426.637C114.6 425.948 114.487 425.096 114.487 424.082V421.218C114.487 420.157 114.265 419.395 113.821 418.931C113.377 418.467 112.595 418.235 111.474 418.235V416.753C112.688 416.753 113.675 416.843 114.438 417.022C115.2 417.194 115.786 417.443 116.197 417.768C116.608 418.086 116.89 418.464 117.043 418.901C117.195 419.332 117.271 419.803 117.271 420.313V423.932C117.271 424.662 117.354 425.262 117.52 425.732C117.692 426.209 117.994 426.561 118.425 426.786C118.856 427.018 119.455 427.134 120.224 427.134V429.491ZM111.474 418.235V415.371H114.229V418.235H111.474ZM132.755 418.921V409.982H135.738V425.255H132.815V422.61H132.656C132.305 423.425 131.741 424.105 130.966 424.648C130.197 425.185 129.239 425.454 128.092 425.454C127.111 425.454 126.243 425.238 125.487 424.807C124.738 424.37 124.148 423.724 123.717 422.869C123.293 422.013 123.081 420.956 123.081 419.697V409.982H126.054V419.339C126.054 420.379 126.342 421.208 126.919 421.824C127.495 422.441 128.244 422.749 129.166 422.749C129.723 422.749 130.276 422.61 130.826 422.332C131.383 422.053 131.844 421.632 132.208 421.069C132.58 420.505 132.762 419.789 132.755 418.921ZM151.178 413.711L148.483 414.188C148.37 413.843 148.191 413.515 147.946 413.204C147.707 412.892 147.383 412.637 146.972 412.438C146.561 412.239 146.047 412.14 145.43 412.14C144.589 412.14 143.886 412.329 143.322 412.707C142.759 413.078 142.477 413.558 142.477 414.148C142.477 414.659 142.666 415.07 143.044 415.381C143.422 415.693 144.032 415.948 144.874 416.147L147.3 416.704C148.705 417.029 149.752 417.529 150.442 418.205C151.131 418.881 151.476 419.76 151.476 420.84C151.476 421.755 151.211 422.57 150.68 423.286C150.157 423.995 149.424 424.552 148.483 424.957C147.548 425.361 146.464 425.563 145.232 425.563C143.521 425.563 142.126 425.199 141.045 424.469C139.965 423.734 139.302 422.69 139.057 421.337L141.93 420.9C142.109 421.649 142.477 422.216 143.034 422.6C143.591 422.978 144.317 423.167 145.212 423.167C146.186 423.167 146.965 422.965 147.548 422.56C148.132 422.149 148.423 421.649 148.423 421.059C148.423 420.582 148.244 420.181 147.886 419.856C147.535 419.531 146.995 419.286 146.266 419.12L143.68 418.553C142.255 418.228 141.201 417.711 140.518 417.002C139.842 416.293 139.504 415.395 139.504 414.307C139.504 413.406 139.756 412.617 140.26 411.941C140.764 411.265 141.46 410.738 142.348 410.36C143.236 409.976 144.254 409.783 145.401 409.783C147.051 409.783 148.35 410.141 149.298 410.857C150.246 411.566 150.873 412.518 151.178 413.711ZM161.327 425.563C159.822 425.563 158.526 425.242 157.439 424.599C156.359 423.949 155.524 423.038 154.934 421.864C154.35 420.684 154.059 419.302 154.059 417.718C154.059 416.154 154.35 414.775 154.934 413.582C155.524 412.388 156.346 411.457 157.4 410.788C158.46 410.118 159.7 409.783 161.118 409.783C161.98 409.783 162.815 409.926 163.624 410.211C164.433 410.496 165.158 410.943 165.801 411.553C166.444 412.163 166.952 412.955 167.323 413.93C167.694 414.897 167.88 416.074 167.88 417.459V418.513H155.739V416.286H164.966C164.966 415.504 164.807 414.811 164.489 414.208C164.171 413.598 163.723 413.118 163.147 412.766C162.577 412.415 161.907 412.239 161.138 412.239C160.303 412.239 159.574 412.445 158.951 412.856C158.334 413.26 157.857 413.79 157.519 414.447C157.187 415.096 157.022 415.802 157.022 416.565V418.305C157.022 419.325 157.201 420.194 157.559 420.91C157.923 421.626 158.43 422.172 159.08 422.55C159.73 422.922 160.489 423.107 161.357 423.107C161.92 423.107 162.434 423.028 162.898 422.869C163.362 422.703 163.763 422.458 164.101 422.133C164.439 421.808 164.698 421.407 164.877 420.93L167.691 421.437C167.465 422.265 167.061 422.991 166.478 423.614C165.901 424.231 165.175 424.711 164.3 425.056C163.432 425.394 162.441 425.563 161.327 425.563ZM171.178 425.255V409.982H174.052V412.408H174.211C174.489 411.586 174.98 410.94 175.683 410.469C176.392 409.992 177.194 409.753 178.089 409.753C178.274 409.753 178.493 409.76 178.745 409.773C179.004 409.787 179.206 409.803 179.352 409.823V412.667C179.232 412.634 179.02 412.597 178.715 412.557C178.41 412.511 178.105 412.488 177.8 412.488C177.098 412.488 176.471 412.637 175.921 412.935C175.378 413.227 174.947 413.635 174.629 414.158C174.31 414.675 174.151 415.265 174.151 415.928V425.255H171.178ZM198.599 404.891V425.255H195.775L185.424 410.32H185.235V425.255H182.163V404.891H185.007L195.368 419.846H195.556V404.891H198.599ZM207.287 425.593C206.319 425.593 205.444 425.414 204.662 425.056C203.88 424.691 203.26 424.164 202.803 423.475C202.352 422.786 202.126 421.94 202.126 420.94C202.126 420.078 202.292 419.369 202.624 418.812C202.955 418.255 203.402 417.814 203.966 417.489C204.529 417.164 205.159 416.919 205.855 416.753C206.551 416.588 207.26 416.462 207.983 416.376C208.898 416.27 209.64 416.183 210.21 416.117C210.78 416.044 211.195 415.928 211.453 415.769C211.712 415.61 211.841 415.351 211.841 414.994V414.924C211.841 414.056 211.596 413.383 211.105 412.905C210.621 412.428 209.899 412.19 208.938 412.19C207.937 412.19 207.148 412.412 206.571 412.856C206.001 413.293 205.607 413.78 205.388 414.317L202.594 413.681C202.925 412.753 203.409 412.004 204.045 411.434C204.688 410.857 205.428 410.44 206.263 410.181C207.098 409.916 207.976 409.783 208.898 409.783C209.508 409.783 210.154 409.856 210.837 410.002C211.526 410.141 212.169 410.4 212.766 410.778C213.369 411.155 213.863 411.696 214.247 412.398C214.632 413.094 214.824 413.999 214.824 415.113V425.255H211.92V423.167H211.801C211.609 423.551 211.321 423.929 210.936 424.3C210.552 424.672 210.058 424.98 209.455 425.225C208.851 425.47 208.129 425.593 207.287 425.593ZM207.933 423.207C208.755 423.207 209.458 423.044 210.041 422.719C210.631 422.395 211.079 421.97 211.384 421.447C211.695 420.916 211.851 420.35 211.851 419.746V417.778C211.745 417.884 211.539 417.983 211.234 418.076C210.936 418.162 210.595 418.238 210.21 418.305C209.826 418.364 209.451 418.421 209.087 418.474C208.722 418.52 208.417 418.56 208.172 418.593C207.595 418.666 207.068 418.789 206.591 418.961C206.12 419.133 205.742 419.382 205.457 419.707C205.179 420.025 205.04 420.449 205.04 420.979C205.04 421.715 205.312 422.272 205.855 422.65C206.399 423.021 207.091 423.207 207.933 423.207ZM218.784 425.255V409.982H221.637V412.468H221.826C222.145 411.626 222.665 410.97 223.387 410.499C224.11 410.022 224.975 409.783 225.983 409.783C227.003 409.783 227.859 410.022 228.548 410.499C229.244 410.976 229.758 411.633 230.089 412.468H230.248C230.613 411.653 231.193 411.003 231.988 410.519C232.784 410.029 233.732 409.783 234.832 409.783C236.217 409.783 237.348 410.217 238.223 411.086C239.104 411.954 239.545 413.263 239.545 415.013V425.255H236.572V415.292C236.572 414.258 236.29 413.509 235.727 413.045C235.163 412.581 234.491 412.349 233.708 412.349C232.741 412.349 231.988 412.647 231.451 413.244C230.914 413.833 230.646 414.592 230.646 415.521V425.255H227.683V415.103C227.683 414.274 227.424 413.608 226.907 413.104C226.39 412.601 225.717 412.349 224.889 412.349C224.325 412.349 223.805 412.498 223.328 412.796C222.857 413.088 222.476 413.495 222.184 414.019C221.899 414.543 221.757 415.149 221.757 415.839V425.255H218.784ZM250.112 425.563C248.607 425.563 247.312 425.242 246.224 424.599C245.144 423.949 244.309 423.038 243.719 421.864C243.135 420.684 242.844 419.302 242.844 417.718C242.844 416.154 243.135 414.775 243.719 413.582C244.309 412.388 245.131 411.457 246.185 410.788C247.245 410.118 248.485 409.783 249.903 409.783C250.765 409.783 251.6 409.926 252.409 410.211C253.218 410.496 253.944 410.943 254.587 411.553C255.23 412.163 255.737 412.955 256.108 413.93C256.479 414.897 256.665 416.074 256.665 417.459V418.513H244.524V416.286H253.751C253.751 415.504 253.592 414.811 253.274 414.208C252.956 413.598 252.509 413.118 251.932 412.766C251.362 412.415 250.692 412.239 249.923 412.239C249.088 412.239 248.359 412.445 247.736 412.856C247.119 413.26 246.642 413.79 246.304 414.447C245.973 415.096 245.807 415.802 245.807 416.565V418.305C245.807 419.325 245.986 420.194 246.344 420.91C246.708 421.626 247.215 422.172 247.865 422.55C248.515 422.922 249.274 423.107 250.142 423.107C250.705 423.107 251.219 423.028 251.683 422.869C252.147 422.703 252.548 422.458 252.886 422.133C253.224 421.808 253.483 421.407 253.662 420.93L256.476 421.437C256.25 422.265 255.846 422.991 255.263 423.614C254.686 424.231 253.96 424.711 253.085 425.056C252.217 425.394 251.226 425.563 250.112 425.563ZM267.57 416.753V418.235C266.45 418.235 265.667 418.467 265.223 418.931C264.779 419.395 264.557 420.157 264.557 421.218V424.082C264.557 425.096 264.441 425.948 264.209 426.637C263.984 427.333 263.636 427.89 263.165 428.307C262.694 428.725 262.098 429.027 261.375 429.212C260.653 429.398 259.801 429.491 258.82 429.491V427.134C259.589 427.134 260.189 427.018 260.62 426.786C261.051 426.561 261.349 426.209 261.515 425.732C261.687 425.262 261.773 424.662 261.773 423.932V420.313C261.773 419.803 261.849 419.332 262.002 418.901C262.154 418.464 262.436 418.086 262.847 417.768C263.258 417.443 263.845 417.194 264.607 417.022C265.369 416.843 266.357 416.753 267.57 416.753ZM258.82 404.126C259.801 404.126 260.653 404.218 261.375 404.404C262.098 404.59 262.694 404.891 263.165 405.309C263.636 405.726 263.984 406.283 264.209 406.979C264.441 407.669 264.557 408.521 264.557 409.535V412.388C264.557 413.456 264.779 414.221 265.223 414.685C265.667 415.143 266.45 415.371 267.57 415.371V416.863C266.357 416.863 265.369 416.773 264.607 416.594C263.845 416.415 263.258 416.167 262.847 415.849C262.436 415.53 262.154 415.156 262.002 414.725C261.849 414.288 261.773 413.814 261.773 413.303V409.684C261.773 408.948 261.687 408.345 261.515 407.874C261.349 407.397 261.051 407.046 260.62 406.82C260.189 406.595 259.589 406.482 258.82 406.482V404.126ZM267.57 415.371V418.235H264.816V415.371H267.57Z" fill="black"/>
<path d="M122.922 442.128C123.733 439.63 127.267 439.63 128.078 442.128L129.761 447.306C130.124 448.423 131.165 449.179 132.339 449.179H137.784C140.41 449.179 141.502 452.54 139.377 454.084L134.973 457.284C134.022 457.974 133.625 459.198 133.988 460.315L135.67 465.493C136.482 467.991 133.623 470.068 131.498 468.524L127.094 465.324C126.143 464.634 124.857 464.634 123.906 465.324L119.502 468.524C117.377 470.068 114.518 467.991 115.33 465.493L117.012 460.315C117.375 459.198 116.978 457.974 116.027 457.284L111.623 454.084C109.498 452.54 110.59 449.179 113.216 449.179H118.661C119.835 449.179 120.876 448.423 121.239 447.306L122.922 442.128Z" fill="#0EB400"/>
<path d="M156.922 442.128C157.733 439.63 161.267 439.63 162.078 442.128L163.761 447.306C164.124 448.423 165.165 449.179 166.339 449.179H171.784C174.41 449.179 175.502 452.54 173.377 454.084L168.973 457.284C168.022 457.974 167.625 459.198 167.988 460.315L169.67 465.493C170.482 467.991 167.623 470.068 165.498 468.524L161.094 465.324C160.143 464.634 158.857 464.634 157.906 465.324L153.502 468.524C151.377 470.068 148.518 467.991 149.33 465.493L151.012 460.315C151.375 459.198 150.978 457.974 150.027 457.284L145.623 454.084C143.498 452.54 144.59 449.179 147.216 449.179H152.661C153.835 449.179 154.876 448.423 155.239 447.306L156.922 442.128Z" fill="#0EB400"/>
<path d="M190.922 442.128C191.733 439.63 195.267 439.63 196.078 442.128L197.761 447.306C198.124 448.423 199.165 449.179 200.339 449.179H205.784C208.41 449.179 209.502 452.54 207.377 454.084L202.973 457.284C202.022 457.974 201.625 459.198 201.988 460.315L203.67 465.493C204.482 467.991 201.623 470.068 199.498 468.524L195.094 465.324C194.143 464.634 192.857 464.634 191.906 465.324L187.502 468.524C185.377 470.068 182.518 467.991 183.33 465.493L185.012 460.315C185.375 459.198 184.978 457.974 184.027 457.284L179.623 454.084C177.498 452.54 178.59 449.179 181.216 449.179H186.661C187.835 449.179 188.876 448.423 189.239 447.306L190.922 442.128Z" fill="#0EB400"/>
<path d="M224.922 442.128C225.733 439.63 229.267 439.63 230.078 442.128L231.761 447.306C232.124 448.423 233.165 449.179 234.339 449.179H239.784C242.41 449.179 243.502 452.54 241.377 454.084L236.973 457.284C236.022 457.974 235.625 459.198 235.988 460.315L237.67 465.493C238.482 467.991 235.623 470.068 233.498 468.524L229.094 465.324C228.143 464.634 226.857 464.634 225.906 465.324L221.502 468.524C219.377 470.068 216.518 467.991 217.33 465.493L219.012 460.315C219.375 459.198 218.978 457.974 218.027 457.284L213.623 454.084C211.498 452.54 212.59 449.179 215.216 449.179H220.661C221.835 449.179 222.876 448.423 223.239 447.306L224.922 442.128Z" fill="#0EB400"/>
<path d="M258.922 442.128C259.733 439.63 263.267 439.63 264.078 442.128L265.761 447.306C266.124 448.423 267.165 449.179 268.339 449.179H273.784C276.41 449.179 277.502 452.54 275.377 454.084L270.973 457.284C270.022 457.974 269.625 459.198 269.988 460.315L271.67 465.493C272.482 467.991 269.623 470.068 267.498 468.524L263.094 465.324C262.143 464.634 260.857 464.634 259.906 465.324L255.502 468.524C253.377 470.068 250.518 467.991 251.33 465.493L253.012 460.315C253.375 459.198 252.978 457.974 252.027 457.284L247.623 454.084C245.498 452.54 246.59 449.179 249.216 449.179H254.661C255.835 449.179 256.876 448.423 257.239 447.306L258.922 442.128Z" fill="#0EB400"/>
<path d="M127.492 480.207H129.484V501.951H127.492V480.207ZM112.948 495.063H114.748C118.372 495.063 121.612 494.919 125.452 494.295L125.668 495.927C121.732 496.575 118.468 496.719 114.748 496.719H112.948V495.063ZM112.9 482.247H122.932V489.999H114.94V495.687H112.948V488.367H120.916V483.879H112.9V482.247ZM138.698 493.167H140.69V501.927H138.698V493.167ZM146.45 493.167H148.466V501.927H146.45V493.167ZM133.754 492.903H153.434V494.535H133.754V492.903ZM136.226 481.071H138.218V483.975H148.946V481.071H150.914V490.359H136.226V481.071ZM138.218 485.607V488.703H148.946V485.607H138.218ZM171.648 480.207H173.64V501.951H171.648V480.207ZM157.104 495.063H158.904C162.528 495.063 165.768 494.919 169.608 494.295L169.824 495.927C165.888 496.575 162.624 496.719 158.904 496.719H157.104V495.063ZM157.056 482.247H167.088V489.999H159.096V495.687H157.104V488.367H165.072V483.879H157.056V482.247ZM182.854 493.167H184.846V501.927H182.854V493.167ZM190.606 493.167H192.622V501.927H190.606V493.167ZM177.91 492.903H197.59V494.535H177.91V492.903ZM180.382 481.071H182.374V483.975H193.102V481.071H195.07V490.359H180.382V481.071ZM182.374 485.607V488.703H193.102V485.607H182.374ZM215.805 480.207H217.797V501.951H215.805V480.207ZM201.261 495.063H203.061C206.685 495.063 209.925 494.919 213.765 494.295L213.981 495.927C210.045 496.575 206.781 496.719 203.061 496.719H201.261V495.063ZM201.213 482.247H211.245V489.999H203.253V495.687H201.261V488.367H209.229V483.879H201.213V482.247ZM227.011 493.167H229.003V501.927H227.011V493.167ZM234.763 493.167H236.779V501.927H234.763V493.167ZM222.067 492.903H241.747V494.535H222.067V492.903ZM224.539 481.071H226.531V483.975H237.259V481.071H239.227V490.359H224.539V481.071ZM226.531 485.607V488.703H237.259V485.607H226.531ZM259.937 480.231H261.953V492.159H259.937V480.231ZM245.273 490.071H247.025C250.961 490.071 253.865 489.951 257.345 489.375L257.561 491.031C253.985 491.583 251.057 491.703 247.025 491.703H245.273V490.071ZM245.225 481.287H255.065V487.167H247.217V491.151H245.273V485.607H253.121V482.895H245.225V481.287ZM247.913 493.239H249.881V495.783H259.985V493.239H261.953V501.639H247.913V493.239ZM249.881 497.367V500.007H259.985V497.367H249.881ZM266.223 493.143H285.903V494.775H266.223V493.143ZM271.311 494.031H273.327V501.927H271.311V494.031ZM278.775 494.031H280.767V501.927H278.775V494.031ZM268.575 481.071H283.503V486.663H270.639V490.383H268.623V485.127H281.511V482.679H268.575V481.071ZM268.623 489.327H284.007V490.935H268.623V489.327ZM304.069 480.207H306.061V501.951H304.069V480.207ZM289.549 482.055H291.517V487.791H297.781V482.055H299.773V496.719H289.549V482.055ZM291.517 489.375V495.087H297.781V489.375H291.517ZM310.379 493.143H330.059V494.775H310.379V493.143ZM315.467 494.031H317.483V501.927H315.467V494.031ZM322.931 494.031H324.923V501.927H322.931V494.031ZM312.731 481.071H327.659V486.663H314.795V490.383H312.779V485.127H325.667V482.679H312.731V481.071ZM312.779 489.327H328.163V490.935H312.779V489.327ZM348.225 480.207H350.217V501.951H348.225V480.207ZM333.705 482.055H335.673V487.791H341.937V482.055H343.929V496.719H333.705V482.055ZM335.673 489.375V495.087H341.937V489.375H335.673ZM360.319 492.087H362.287V495.111H360.319V492.087ZM366.463 492.087H368.431V495.111H366.463V492.087ZM354.535 490.815H374.215V492.423H354.535V490.815ZM357.151 494.031H359.119V496.359H369.703V494.031H371.671V501.639H357.151V494.031ZM359.119 497.871V500.079H369.703V497.871H359.119ZM357.031 480.687H371.671V485.607H359.047V488.535H357.079V484.143H369.727V482.175H357.031V480.687ZM357.079 487.623H372.151V489.135H357.079V487.623ZM392.43 480.207H394.422V501.951H392.43V480.207ZM377.886 495.063H379.686C383.31 495.063 386.55 494.919 390.39 494.295L390.606 495.927C386.67 496.575 383.406 496.719 379.686 496.719H377.886V495.063ZM377.838 482.247H387.87V489.999H379.878V495.687H377.886V488.367H385.854V483.879H377.838V482.247ZM401.308 480.543H403.276V482.559H413.764V480.543H415.756V487.695H401.308V480.543ZM403.276 484.095V486.159H413.764V484.095H403.276ZM398.692 489.471H418.3V491.103H398.692V489.471ZM401.068 493.215H415.804V498.039H403.084V500.727H401.116V496.599H413.836V494.727H401.068V493.215ZM401.116 500.151H416.452V501.687H401.116V500.151ZM404.044 489.903H406.012V493.935H404.044V489.903ZM411.148 489.903H413.116V493.935H411.148V489.903Z" fill="black"/>
<rect x="1" y="552.555" width="1210" height="166.799" rx="19.5" fill="white"/>
<rect x="1" y="552.555" width="1210" height="166.799" rx="19.5" stroke="#A6A6A6"/>
<rect x="30.5" y="582.055" width="60" height="60" rx="30" fill="#666666"/>
<path d="M111.474 600.663V599.171C112.595 599.171 113.377 598.942 113.821 598.485C114.265 598.021 114.487 597.255 114.487 596.188V593.335C114.487 592.32 114.6 591.469 114.825 590.779C115.057 590.083 115.409 589.526 115.879 589.109C116.35 588.691 116.946 588.389 117.669 588.204C118.392 588.018 119.243 587.925 120.224 587.925V590.282C119.455 590.282 118.856 590.395 118.425 590.62C117.994 590.845 117.692 591.197 117.52 591.674C117.354 592.145 117.271 592.748 117.271 593.484V597.103C117.271 597.613 117.195 598.087 117.043 598.525C116.89 598.956 116.608 599.33 116.197 599.648C115.786 599.967 115.2 600.215 114.438 600.394C113.675 600.573 112.688 600.663 111.474 600.663ZM120.224 613.29C119.243 613.29 118.392 613.198 117.669 613.012C116.946 612.826 116.35 612.525 115.879 612.107C115.409 611.69 115.057 611.133 114.825 610.437C114.6 609.747 114.487 608.896 114.487 607.881V605.018C114.487 603.957 114.265 603.195 113.821 602.731C113.377 602.267 112.595 602.035 111.474 602.035V600.553C112.688 600.553 113.675 600.643 114.438 600.822C115.2 600.994 115.786 601.243 116.197 601.567C116.608 601.886 116.89 602.263 117.043 602.701C117.195 603.132 117.271 603.603 117.271 604.113V607.732C117.271 608.461 117.354 609.061 117.52 609.532C117.692 610.009 117.994 610.361 118.425 610.586C118.856 610.818 119.455 610.934 120.224 610.934V613.29ZM111.474 602.035V599.171H114.229V602.035H111.474ZM132.755 602.721V593.782H135.738V609.055H132.815V606.41H132.656C132.305 607.225 131.741 607.905 130.966 608.448C130.197 608.985 129.239 609.254 128.092 609.254C127.111 609.254 126.243 609.038 125.487 608.607C124.738 608.17 124.148 607.523 123.717 606.668C123.293 605.813 123.081 604.756 123.081 603.496V593.782H126.054V603.138C126.054 604.179 126.342 605.008 126.919 605.624C127.495 606.241 128.244 606.549 129.166 606.549C129.723 606.549 130.276 606.41 130.826 606.131C131.383 605.853 131.844 605.432 132.208 604.869C132.58 604.305 132.762 603.589 132.755 602.721ZM151.178 597.511L148.483 597.988C148.37 597.643 148.191 597.315 147.946 597.004C147.707 596.692 147.383 596.437 146.972 596.238C146.561 596.039 146.047 595.94 145.43 595.94C144.589 595.94 143.886 596.129 143.322 596.506C142.759 596.878 142.477 597.358 142.477 597.948C142.477 598.459 142.666 598.87 143.044 599.181C143.422 599.493 144.032 599.748 144.874 599.947L147.3 600.504C148.705 600.828 149.752 601.329 150.442 602.005C151.131 602.681 151.476 603.559 151.476 604.64C151.476 605.555 151.211 606.37 150.68 607.086C150.157 607.795 149.424 608.352 148.483 608.756C147.548 609.161 146.464 609.363 145.232 609.363C143.521 609.363 142.126 608.998 141.045 608.269C139.965 607.533 139.302 606.489 139.057 605.137L141.93 604.7C142.109 605.449 142.477 606.015 143.034 606.4C143.591 606.778 144.317 606.967 145.212 606.967C146.186 606.967 146.965 606.764 147.548 606.36C148.132 605.949 148.423 605.449 148.423 604.859C148.423 604.381 148.244 603.98 147.886 603.656C147.535 603.331 146.995 603.085 146.266 602.92L143.68 602.353C142.255 602.028 141.201 601.511 140.518 600.802C139.842 600.093 139.504 599.194 139.504 598.107C139.504 597.206 139.756 596.417 140.26 595.741C140.764 595.065 141.46 594.538 142.348 594.16C143.236 593.775 144.254 593.583 145.401 593.583C147.051 593.583 148.35 593.941 149.298 594.657C150.246 595.366 150.873 596.317 151.178 597.511ZM161.327 609.363C159.822 609.363 158.526 609.041 157.439 608.398C156.359 607.749 155.524 606.837 154.934 605.664C154.35 604.484 154.059 603.102 154.059 601.518C154.059 599.953 154.35 598.575 154.934 597.381C155.524 596.188 156.346 595.257 157.4 594.587C158.46 593.918 159.7 593.583 161.118 593.583C161.98 593.583 162.815 593.726 163.624 594.011C164.433 594.296 165.158 594.743 165.801 595.353C166.444 595.963 166.952 596.755 167.323 597.729C167.694 598.697 167.88 599.874 167.88 601.259V602.313H155.739V600.086H164.966C164.966 599.304 164.807 598.611 164.489 598.008C164.171 597.398 163.723 596.917 163.147 596.566C162.577 596.215 161.907 596.039 161.138 596.039C160.303 596.039 159.574 596.245 158.951 596.656C158.334 597.06 157.857 597.59 157.519 598.246C157.187 598.896 157.022 599.602 157.022 600.364V602.104C157.022 603.125 157.201 603.994 157.559 604.71C157.923 605.425 158.43 605.972 159.08 606.35C159.73 606.721 160.489 606.907 161.357 606.907C161.92 606.907 162.434 606.827 162.898 606.668C163.362 606.503 163.763 606.257 164.101 605.933C164.439 605.608 164.698 605.207 164.877 604.729L167.691 605.237C167.465 606.065 167.061 606.791 166.478 607.414C165.901 608.031 165.175 608.511 164.3 608.856C163.432 609.194 162.441 609.363 161.327 609.363ZM171.178 609.055V593.782H174.052V596.208H174.211C174.489 595.386 174.98 594.74 175.683 594.269C176.392 593.792 177.194 593.553 178.089 593.553C178.274 593.553 178.493 593.56 178.745 593.573C179.004 593.586 179.206 593.603 179.352 593.623V596.467C179.232 596.433 179.02 596.397 178.715 596.357C178.41 596.311 178.105 596.288 177.8 596.288C177.098 596.288 176.471 596.437 175.921 596.735C175.378 597.027 174.947 597.434 174.629 597.958C174.31 598.475 174.151 599.065 174.151 599.728V609.055H171.178ZM198.599 588.691V609.055H195.775L185.424 594.12H185.235V609.055H182.163V588.691H185.007L195.368 603.646H195.556V588.691H198.599ZM207.287 609.393C206.319 609.393 205.444 609.214 204.662 608.856C203.88 608.491 203.26 607.964 202.803 607.275C202.352 606.585 202.126 605.74 202.126 604.739C202.126 603.878 202.292 603.168 202.624 602.612C202.955 602.055 203.402 601.614 203.966 601.289C204.529 600.964 205.159 600.719 205.855 600.553C206.551 600.388 207.26 600.262 207.983 600.175C208.898 600.069 209.64 599.983 210.21 599.917C210.78 599.844 211.195 599.728 211.453 599.569C211.712 599.41 211.841 599.151 211.841 598.793V598.724C211.841 597.855 211.596 597.183 211.105 596.705C210.621 596.228 209.899 595.989 208.938 595.989C207.937 595.989 207.148 596.211 206.571 596.656C206.001 597.093 205.607 597.58 205.388 598.117L202.594 597.481C202.925 596.553 203.409 595.804 204.045 595.234C204.688 594.657 205.428 594.239 206.263 593.981C207.098 593.716 207.976 593.583 208.898 593.583C209.508 593.583 210.154 593.656 210.837 593.802C211.526 593.941 212.169 594.2 212.766 594.577C213.369 594.955 213.863 595.496 214.247 596.198C214.632 596.894 214.824 597.799 214.824 598.913V609.055H211.92V606.967H211.801C211.609 607.351 211.321 607.729 210.936 608.1C210.552 608.471 210.058 608.78 209.455 609.025C208.851 609.27 208.129 609.393 207.287 609.393ZM207.933 607.006C208.755 607.006 209.458 606.844 210.041 606.519C210.631 606.194 211.079 605.77 211.384 605.246C211.695 604.716 211.851 604.149 211.851 603.546V601.577C211.745 601.683 211.539 601.783 211.234 601.876C210.936 601.962 210.595 602.038 210.21 602.104C209.826 602.164 209.451 602.22 209.087 602.273C208.722 602.32 208.417 602.36 208.172 602.393C207.595 602.466 207.068 602.588 206.591 602.761C206.12 602.933 205.742 603.182 205.457 603.506C205.179 603.825 205.04 604.249 205.04 604.779C205.04 605.515 205.312 606.072 205.855 606.45C206.399 606.821 207.091 607.006 207.933 607.006ZM218.784 609.055V593.782H221.637V596.268H221.826C222.145 595.426 222.665 594.77 223.387 594.299C224.11 593.822 224.975 593.583 225.983 593.583C227.003 593.583 227.859 593.822 228.548 594.299C229.244 594.776 229.758 595.433 230.089 596.268H230.248C230.613 595.452 231.193 594.803 231.988 594.319C232.784 593.828 233.732 593.583 234.832 593.583C236.217 593.583 237.348 594.017 238.223 594.886C239.104 595.754 239.545 597.063 239.545 598.813V609.055H236.572V599.092C236.572 598.058 236.29 597.308 235.727 596.844C235.163 596.38 234.491 596.148 233.708 596.148C232.741 596.148 231.988 596.447 231.451 597.043C230.914 597.633 230.646 598.392 230.646 599.32V609.055H227.683V598.903C227.683 598.074 227.424 597.408 226.907 596.904C226.39 596.4 225.717 596.148 224.889 596.148C224.325 596.148 223.805 596.298 223.328 596.596C222.857 596.888 222.476 597.295 222.184 597.819C221.899 598.343 221.757 598.949 221.757 599.638V609.055H218.784ZM250.112 609.363C248.607 609.363 247.312 609.041 246.224 608.398C245.144 607.749 244.309 606.837 243.719 605.664C243.135 604.484 242.844 603.102 242.844 601.518C242.844 599.953 243.135 598.575 243.719 597.381C244.309 596.188 245.131 595.257 246.185 594.587C247.245 593.918 248.485 593.583 249.903 593.583C250.765 593.583 251.6 593.726 252.409 594.011C253.218 594.296 253.944 594.743 254.587 595.353C255.23 595.963 255.737 596.755 256.108 597.729C256.479 598.697 256.665 599.874 256.665 601.259V602.313H244.524V600.086H253.751C253.751 599.304 253.592 598.611 253.274 598.008C252.956 597.398 252.509 596.917 251.932 596.566C251.362 596.215 250.692 596.039 249.923 596.039C249.088 596.039 248.359 596.245 247.736 596.656C247.119 597.06 246.642 597.59 246.304 598.246C245.973 598.896 245.807 599.602 245.807 600.364V602.104C245.807 603.125 245.986 603.994 246.344 604.71C246.708 605.425 247.215 605.972 247.865 606.35C248.515 606.721 249.274 606.907 250.142 606.907C250.705 606.907 251.219 606.827 251.683 606.668C252.147 606.503 252.548 606.257 252.886 605.933C253.224 605.608 253.483 605.207 253.662 604.729L256.476 605.237C256.25 606.065 255.846 606.791 255.263 607.414C254.686 608.031 253.96 608.511 253.085 608.856C252.217 609.194 251.226 609.363 250.112 609.363ZM267.57 600.553V602.035C266.45 602.035 265.667 602.267 265.223 602.731C264.779 603.195 264.557 603.957 264.557 605.018V607.881C264.557 608.896 264.441 609.747 264.209 610.437C263.984 611.133 263.636 611.69 263.165 612.107C262.694 612.525 262.098 612.826 261.375 613.012C260.653 613.198 259.801 613.29 258.82 613.29V610.934C259.589 610.934 260.189 610.818 260.62 610.586C261.051 610.361 261.349 610.009 261.515 609.532C261.687 609.061 261.773 608.461 261.773 607.732V604.113C261.773 603.603 261.849 603.132 262.002 602.701C262.154 602.263 262.436 601.886 262.847 601.567C263.258 601.243 263.845 600.994 264.607 600.822C265.369 600.643 266.357 600.553 267.57 600.553ZM258.82 587.925C259.801 587.925 260.653 588.018 261.375 588.204C262.098 588.389 262.694 588.691 263.165 589.109C263.636 589.526 263.984 590.083 264.209 590.779C264.441 591.469 264.557 592.32 264.557 593.335V596.188C264.557 597.255 264.779 598.021 265.223 598.485C265.667 598.942 266.45 599.171 267.57 599.171V600.663C266.357 600.663 265.369 600.573 264.607 600.394C263.845 600.215 263.258 599.967 262.847 599.648C262.436 599.33 262.154 598.956 262.002 598.525C261.849 598.087 261.773 597.613 261.773 597.103V593.484C261.773 592.748 261.687 592.145 261.515 591.674C261.349 591.197 261.051 590.845 260.62 590.62C260.189 590.395 259.589 590.282 258.82 590.282V587.925ZM267.57 599.171V602.035H264.816V599.171H267.57Z" fill="black"/>
<path d="M122.922 625.928C123.733 623.43 127.267 623.43 128.078 625.928L129.761 631.106C130.124 632.223 131.165 632.979 132.339 632.979H137.784C140.41 632.979 141.502 636.34 139.377 637.884L134.973 641.084C134.022 641.774 133.625 642.998 133.988 644.115L135.67 649.293C136.482 651.791 133.623 653.868 131.498 652.324L127.094 649.124C126.143 648.434 124.857 648.434 123.906 649.124L119.502 652.324C117.377 653.868 114.518 651.791 115.33 649.293L117.012 644.115C117.375 642.998 116.978 641.774 116.027 641.084L111.623 637.884C109.498 636.34 110.59 632.979 113.216 632.979H118.661C119.835 632.979 120.876 632.223 121.239 631.106L122.922 625.928Z" fill="#0EB400"/>
<path d="M156.922 625.928C157.733 623.43 161.267 623.43 162.078 625.928L163.761 631.106C164.124 632.223 165.165 632.979 166.339 632.979H171.784C174.41 632.979 175.502 636.34 173.377 637.884L168.973 641.084C168.022 641.774 167.625 642.998 167.988 644.115L169.67 649.293C170.482 651.791 167.623 653.868 165.498 652.324L161.094 649.124C160.143 648.434 158.857 648.434 157.906 649.124L153.502 652.324C151.377 653.868 148.518 651.791 149.33 649.293L151.012 644.115C151.375 642.998 150.978 641.774 150.027 641.084L145.623 637.884C143.498 636.34 144.59 632.979 147.216 632.979H152.661C153.835 632.979 154.876 632.223 155.239 631.106L156.922 625.928Z" fill="#0EB400"/>
<path d="M190.922 625.928C191.733 623.43 195.267 623.43 196.078 625.928L197.761 631.106C198.124 632.223 199.165 632.979 200.339 632.979H205.784C208.41 632.979 209.502 636.34 207.377 637.884L202.973 641.084C202.022 641.774 201.625 642.998 201.988 644.115L203.67 649.293C204.482 651.791 201.623 653.868 199.498 652.324L195.094 649.124C194.143 648.434 192.857 648.434 191.906 649.124L187.502 652.324C185.377 653.868 182.518 651.791 183.33 649.293L185.012 644.115C185.375 642.998 184.978 641.774 184.027 641.084L179.623 637.884C177.498 636.34 178.59 632.979 181.216 632.979H186.661C187.835 632.979 188.876 632.223 189.239 631.106L190.922 625.928Z" fill="#0EB400"/>
<path d="M224.922 625.928C225.733 623.43 229.267 623.43 230.078 625.928L231.761 631.106C232.124 632.223 233.165 632.979 234.339 632.979H239.784C242.41 632.979 243.502 636.34 241.377 637.884L236.973 641.084C236.022 641.774 235.625 642.998 235.988 644.115L237.67 649.293C238.482 651.791 235.623 653.868 233.498 652.324L229.094 649.124C228.143 648.434 226.857 648.434 225.906 649.124L221.502 652.324C219.377 653.868 216.518 651.791 217.33 649.293L219.012 644.115C219.375 642.998 218.978 641.774 218.027 641.084L213.623 637.884C211.498 636.34 212.59 632.979 215.216 632.979H220.661C221.835 632.979 222.876 632.223 223.239 631.106L224.922 625.928Z" fill="#0EB400"/>
<path d="M258.922 625.928C259.733 623.43 263.267 623.43 264.078 625.928L265.761 631.106C266.124 632.223 267.165 632.979 268.339 632.979H273.784C276.41 632.979 277.502 636.34 275.377 637.884L270.973 641.084C270.022 641.774 269.625 642.998 269.988 644.115L271.67 649.293C272.482 651.791 269.623 653.868 267.498 652.324L263.094 649.124C262.143 648.434 260.857 648.434 259.906 649.124L255.502 652.324C253.377 653.868 250.518 651.791 251.33 649.293L253.012 644.115C253.375 642.998 252.978 641.774 252.027 641.084L247.623 637.884C245.498 636.34 246.59 632.979 249.216 632.979H254.661C255.835 632.979 256.876 632.223 257.239 631.106L258.922 625.928Z" fill="#0EB400"/>
<path d="M127.492 664.006H129.484V685.75H127.492V664.006ZM112.948 678.862H114.748C118.372 678.862 121.612 678.718 125.452 678.094L125.668 679.726C121.732 680.374 118.468 680.518 114.748 680.518H112.948V678.862ZM112.9 666.046H122.932V673.798H114.94V679.486H112.948V672.166H120.916V667.678H112.9V666.046ZM138.698 676.966H140.69V685.726H138.698V676.966ZM146.45 676.966H148.466V685.726H146.45V676.966ZM133.754 676.702H153.434V678.334H133.754V676.702ZM136.226 664.87H138.218V667.774H148.946V664.87H150.914V674.158H136.226V664.87ZM138.218 669.406V672.502H148.946V669.406H138.218ZM171.648 664.006H173.64V685.75H171.648V664.006ZM157.104 678.862H158.904C162.528 678.862 165.768 678.718 169.608 678.094L169.824 679.726C165.888 680.374 162.624 680.518 158.904 680.518H157.104V678.862ZM157.056 666.046H167.088V673.798H159.096V679.486H157.104V672.166H165.072V667.678H157.056V666.046ZM182.854 676.966H184.846V685.726H182.854V676.966ZM190.606 676.966H192.622V685.726H190.606V676.966ZM177.91 676.702H197.59V678.334H177.91V676.702ZM180.382 664.87H182.374V667.774H193.102V664.87H195.07V674.158H180.382V664.87ZM182.374 669.406V672.502H193.102V669.406H182.374ZM215.805 664.006H217.797V685.75H215.805V664.006ZM201.261 678.862H203.061C206.685 678.862 209.925 678.718 213.765 678.094L213.981 679.726C210.045 680.374 206.781 680.518 203.061 680.518H201.261V678.862ZM201.213 666.046H211.245V673.798H203.253V679.486H201.261V672.166H209.229V667.678H201.213V666.046ZM227.011 676.966H229.003V685.726H227.011V676.966ZM234.763 676.966H236.779V685.726H234.763V676.966ZM222.067 676.702H241.747V678.334H222.067V676.702ZM224.539 664.87H226.531V667.774H237.259V664.87H239.227V674.158H224.539V664.87ZM226.531 669.406V672.502H237.259V669.406H226.531ZM259.937 664.03H261.953V675.958H259.937V664.03ZM245.273 673.87H247.025C250.961 673.87 253.865 673.75 257.345 673.174L257.561 674.83C253.985 675.382 251.057 675.502 247.025 675.502H245.273V673.87ZM245.225 665.086H255.065V670.966H247.217V674.95H245.273V669.406H253.121V666.694H245.225V665.086ZM247.913 677.038H249.881V679.582H259.985V677.038H261.953V685.438H247.913V677.038ZM249.881 681.166V683.806H259.985V681.166H249.881ZM266.223 676.942H285.903V678.574H266.223V676.942ZM271.311 677.83H273.327V685.726H271.311V677.83ZM278.775 677.83H280.767V685.726H278.775V677.83ZM268.575 664.87H283.503V670.462H270.639V674.182H268.623V668.926H281.511V666.478H268.575V664.87ZM268.623 673.126H284.007V674.734H268.623V673.126ZM304.069 664.006H306.061V685.75H304.069V664.006ZM289.549 665.854H291.517V671.59H297.781V665.854H299.773V680.518H289.549V665.854ZM291.517 673.174V678.886H297.781V673.174H291.517ZM310.379 676.942H330.059V678.574H310.379V676.942ZM315.467 677.83H317.483V685.726H315.467V677.83ZM322.931 677.83H324.923V685.726H322.931V677.83ZM312.731 664.87H327.659V670.462H314.795V674.182H312.779V668.926H325.667V666.478H312.731V664.87ZM312.779 673.126H328.163V674.734H312.779V673.126ZM348.225 664.006H350.217V685.75H348.225V664.006ZM333.705 665.854H335.673V671.59H341.937V665.854H343.929V680.518H333.705V665.854ZM335.673 673.174V678.886H341.937V673.174H335.673ZM360.319 675.886H362.287V678.91H360.319V675.886ZM366.463 675.886H368.431V678.91H366.463V675.886ZM354.535 674.614H374.215V676.222H354.535V674.614ZM357.151 677.83H359.119V680.158H369.703V677.83H371.671V685.438H357.151V677.83ZM359.119 681.67V683.878H369.703V681.67H359.119ZM357.031 664.486H371.671V669.406H359.047V672.334H357.079V667.942H369.727V665.974H357.031V664.486ZM357.079 671.422H372.151V672.934H357.079V671.422ZM392.43 664.006H394.422V685.75H392.43V664.006ZM377.886 678.862H379.686C383.31 678.862 386.55 678.718 390.39 678.094L390.606 679.726C386.67 680.374 383.406 680.518 379.686 680.518H377.886V678.862ZM377.838 666.046H387.87V673.798H379.878V679.486H377.886V672.166H385.854V667.678H377.838V666.046ZM401.308 664.342H403.276V666.358H413.764V664.342H415.756V671.494H401.308V664.342ZM403.276 667.894V669.958H413.764V667.894H403.276ZM398.692 673.27H418.3V674.902H398.692V673.27ZM401.068 677.014H415.804V681.838H403.084V684.526H401.116V680.398H413.836V678.526H401.068V677.014ZM401.116 683.95H416.452V685.486H401.116V683.95ZM404.044 673.702H406.012V677.734H404.044V673.702ZM411.148 673.702H413.116V677.734H411.148V673.702Z" fill="black"/>
<rect x="1" y="736.354" width="1210" height="166.799" rx="19.5" fill="white"/>
<rect x="1" y="736.354" width="1210" height="166.799" rx="19.5" stroke="#A6A6A6"/>
<rect x="30.5" y="765.854" width="60" height="60" rx="30" fill="#666666"/>
<path d="M111.474 784.462V782.971C112.595 782.971 113.377 782.742 113.821 782.285C114.265 781.821 114.487 781.055 114.487 779.988V777.134C114.487 776.12 114.6 775.268 114.825 774.579C115.057 773.883 115.409 773.326 115.879 772.908C116.35 772.491 116.946 772.189 117.669 772.004C118.392 771.818 119.243 771.725 120.224 771.725V774.082C119.455 774.082 118.856 774.194 118.425 774.42C117.994 774.645 117.692 774.997 117.52 775.474C117.354 775.944 117.271 776.548 117.271 777.283V780.903C117.271 781.413 117.195 781.887 117.043 782.325C116.89 782.756 116.608 783.13 116.197 783.448C115.786 783.766 115.2 784.015 114.438 784.194C113.675 784.373 112.688 784.462 111.474 784.462ZM120.224 797.09C119.243 797.09 118.392 796.997 117.669 796.812C116.946 796.626 116.35 796.325 115.879 795.907C115.409 795.489 115.057 794.933 114.825 794.237C114.6 793.547 114.487 792.695 114.487 791.681V788.818C114.487 787.757 114.265 786.995 113.821 786.531C113.377 786.067 112.595 785.835 111.474 785.835V784.353C112.688 784.353 113.675 784.443 114.438 784.622C115.2 784.794 115.786 785.042 116.197 785.367C116.608 785.685 116.89 786.063 117.043 786.501C117.195 786.932 117.271 787.402 117.271 787.913V791.532C117.271 792.261 117.354 792.861 117.52 793.332C117.692 793.809 117.994 794.16 118.425 794.386C118.856 794.618 119.455 794.734 120.224 794.734V797.09ZM111.474 785.835V782.971H114.229V785.835H111.474ZM132.755 786.521V777.582H135.738V792.854H132.815V790.21H132.656C132.305 791.025 131.741 791.704 130.966 792.248C130.197 792.785 129.239 793.053 128.092 793.053C127.111 793.053 126.243 792.838 125.487 792.407C124.738 791.97 124.148 791.323 123.717 790.468C123.293 789.613 123.081 788.556 123.081 787.296V777.582H126.054V786.938C126.054 787.979 126.342 788.808 126.919 789.424C127.495 790.041 128.244 790.349 129.166 790.349C129.723 790.349 130.276 790.21 130.826 789.931C131.383 789.653 131.844 789.232 132.208 788.668C132.58 788.105 132.762 787.389 132.755 786.521ZM151.178 781.31L148.483 781.788C148.37 781.443 148.191 781.115 147.946 780.803C147.707 780.492 147.383 780.237 146.972 780.038C146.561 779.839 146.047 779.739 145.43 779.739C144.589 779.739 143.886 779.928 143.322 780.306C142.759 780.677 142.477 781.158 142.477 781.748C142.477 782.258 142.666 782.669 143.044 782.981C143.422 783.292 144.032 783.548 144.874 783.747L147.3 784.303C148.705 784.628 149.752 785.129 150.442 785.805C151.131 786.481 151.476 787.359 151.476 788.44C151.476 789.354 151.211 790.17 150.68 790.886C150.157 791.595 149.424 792.152 148.483 792.556C147.548 792.961 146.464 793.163 145.232 793.163C143.521 793.163 142.126 792.798 141.045 792.069C139.965 791.333 139.302 790.289 139.057 788.937L141.93 788.499C142.109 789.248 142.477 789.815 143.034 790.2C143.591 790.578 144.317 790.766 145.212 790.766C146.186 790.766 146.965 790.564 147.548 790.16C148.132 789.749 148.423 789.248 148.423 788.658C148.423 788.181 148.244 787.78 147.886 787.455C147.535 787.131 146.995 786.885 146.266 786.72L143.68 786.153C142.255 785.828 141.201 785.311 140.518 784.602C139.842 783.892 139.504 782.994 139.504 781.907C139.504 781.006 139.756 780.217 140.26 779.541C140.764 778.864 141.46 778.337 142.348 777.96C143.236 777.575 144.254 777.383 145.401 777.383C147.051 777.383 148.35 777.741 149.298 778.457C150.246 779.166 150.873 780.117 151.178 781.31ZM161.327 793.163C159.822 793.163 158.526 792.841 157.439 792.198C156.359 791.549 155.524 790.637 154.934 789.464C154.35 788.284 154.059 786.902 154.059 785.318C154.059 783.753 154.35 782.374 154.934 781.181C155.524 779.988 156.346 779.057 157.4 778.387C158.46 777.718 159.7 777.383 161.118 777.383C161.98 777.383 162.815 777.525 163.624 777.81C164.433 778.095 165.158 778.543 165.801 779.153C166.444 779.763 166.952 780.555 167.323 781.529C167.694 782.497 167.88 783.674 167.88 785.059V786.113H155.739V783.886H164.966C164.966 783.104 164.807 782.411 164.489 781.808C164.171 781.198 163.723 780.717 163.147 780.366C162.577 780.015 161.907 779.839 161.138 779.839C160.303 779.839 159.574 780.044 158.951 780.455C158.334 780.86 157.857 781.39 157.519 782.046C157.187 782.696 157.022 783.402 157.022 784.164V785.904C157.022 786.925 157.201 787.793 157.559 788.509C157.923 789.225 158.43 789.772 159.08 790.15C159.73 790.521 160.489 790.707 161.357 790.707C161.92 790.707 162.434 790.627 162.898 790.468C163.362 790.302 163.763 790.057 164.101 789.732C164.439 789.408 164.698 789.006 164.877 788.529L167.691 789.036C167.465 789.865 167.061 790.591 166.478 791.214C165.901 791.83 165.175 792.311 164.3 792.656C163.432 792.994 162.441 793.163 161.327 793.163ZM171.178 792.854V777.582H174.052V780.008H174.211C174.489 779.186 174.98 778.54 175.683 778.069C176.392 777.592 177.194 777.353 178.089 777.353C178.274 777.353 178.493 777.36 178.745 777.373C179.004 777.386 179.206 777.403 179.352 777.423V780.266C179.232 780.233 179.02 780.197 178.715 780.157C178.41 780.111 178.105 780.087 177.8 780.087C177.098 780.087 176.471 780.237 175.921 780.535C175.378 780.827 174.947 781.234 174.629 781.758C174.31 782.275 174.151 782.865 174.151 783.528V792.854H171.178ZM198.599 772.491V792.854H195.775L185.424 777.92H185.235V792.854H182.163V772.491H185.007L195.368 787.445H195.556V772.491H198.599ZM207.287 793.193C206.319 793.193 205.444 793.014 204.662 792.656C203.88 792.291 203.26 791.764 202.803 791.075C202.352 790.385 202.126 789.54 202.126 788.539C202.126 787.677 202.292 786.968 202.624 786.411C202.955 785.854 203.402 785.414 203.966 785.089C204.529 784.764 205.159 784.519 205.855 784.353C206.551 784.187 207.26 784.061 207.983 783.975C208.898 783.869 209.64 783.783 210.21 783.717C210.78 783.644 211.195 783.528 211.453 783.369C211.712 783.21 211.841 782.951 211.841 782.593V782.524C211.841 781.655 211.596 780.982 211.105 780.505C210.621 780.028 209.899 779.789 208.938 779.789C207.937 779.789 207.148 780.011 206.571 780.455C206.001 780.893 205.607 781.38 205.388 781.917L202.594 781.281C202.925 780.353 203.409 779.604 204.045 779.033C204.688 778.457 205.428 778.039 206.263 777.781C207.098 777.515 207.976 777.383 208.898 777.383C209.508 777.383 210.154 777.456 210.837 777.602C211.526 777.741 212.169 777.999 212.766 778.377C213.369 778.755 213.863 779.295 214.247 779.998C214.632 780.694 214.824 781.599 214.824 782.712V792.854H211.92V790.766H211.801C211.609 791.151 211.321 791.529 210.936 791.9C210.552 792.271 210.058 792.579 209.455 792.825C208.851 793.07 208.129 793.193 207.287 793.193ZM207.933 790.806C208.755 790.806 209.458 790.644 210.041 790.319C210.631 789.994 211.079 789.57 211.384 789.046C211.695 788.516 211.851 787.949 211.851 787.346V785.377C211.745 785.483 211.539 785.583 211.234 785.676C210.936 785.762 210.595 785.838 210.21 785.904C209.826 785.964 209.451 786.02 209.087 786.073C208.722 786.12 208.417 786.159 208.172 786.193C207.595 786.265 207.068 786.388 206.591 786.56C206.12 786.733 205.742 786.981 205.457 787.306C205.179 787.624 205.04 788.049 205.04 788.579C205.04 789.315 205.312 789.872 205.855 790.249C206.399 790.621 207.091 790.806 207.933 790.806ZM218.784 792.854V777.582H221.637V780.068H221.826C222.145 779.226 222.665 778.569 223.387 778.099C224.11 777.622 224.975 777.383 225.983 777.383C227.003 777.383 227.859 777.622 228.548 778.099C229.244 778.576 229.758 779.232 230.089 780.068H230.248C230.613 779.252 231.193 778.603 231.988 778.119C232.784 777.628 233.732 777.383 234.832 777.383C236.217 777.383 237.348 777.817 238.223 778.685C239.104 779.554 239.545 780.863 239.545 782.613V792.854H236.572V782.891C236.572 781.857 236.29 781.108 235.727 780.644C235.163 780.18 234.491 779.948 233.708 779.948C232.741 779.948 231.988 780.247 231.451 780.843C230.914 781.433 230.646 782.192 230.646 783.12V792.854H227.683V782.703C227.683 781.874 227.424 781.208 226.907 780.704C226.39 780.2 225.717 779.948 224.889 779.948C224.325 779.948 223.805 780.097 223.328 780.396C222.857 780.687 222.476 781.095 222.184 781.619C221.899 782.142 221.757 782.749 221.757 783.438V792.854H218.784ZM250.112 793.163C248.607 793.163 247.312 792.841 246.224 792.198C245.144 791.549 244.309 790.637 243.719 789.464C243.135 788.284 242.844 786.902 242.844 785.318C242.844 783.753 243.135 782.374 243.719 781.181C244.309 779.988 245.131 779.057 246.185 778.387C247.245 777.718 248.485 777.383 249.903 777.383C250.765 777.383 251.6 777.525 252.409 777.81C253.218 778.095 253.944 778.543 254.587 779.153C255.23 779.763 255.737 780.555 256.108 781.529C256.479 782.497 256.665 783.674 256.665 785.059V786.113H244.524V783.886H253.751C253.751 783.104 253.592 782.411 253.274 781.808C252.956 781.198 252.509 780.717 251.932 780.366C251.362 780.015 250.692 779.839 249.923 779.839C249.088 779.839 248.359 780.044 247.736 780.455C247.119 780.86 246.642 781.39 246.304 782.046C245.973 782.696 245.807 783.402 245.807 784.164V785.904C245.807 786.925 245.986 787.793 246.344 788.509C246.708 789.225 247.215 789.772 247.865 790.15C248.515 790.521 249.274 790.707 250.142 790.707C250.705 790.707 251.219 790.627 251.683 790.468C252.147 790.302 252.548 790.057 252.886 789.732C253.224 789.408 253.483 789.006 253.662 788.529L256.476 789.036C256.25 789.865 255.846 790.591 255.263 791.214C254.686 791.83 253.96 792.311 253.085 792.656C252.217 792.994 251.226 793.163 250.112 793.163ZM267.57 784.353V785.835C266.45 785.835 265.667 786.067 265.223 786.531C264.779 786.995 264.557 787.757 264.557 788.818V791.681C264.557 792.695 264.441 793.547 264.209 794.237C263.984 794.933 263.636 795.489 263.165 795.907C262.694 796.325 262.098 796.626 261.375 796.812C260.653 796.997 259.801 797.09 258.82 797.09V794.734C259.589 794.734 260.189 794.618 260.62 794.386C261.051 794.16 261.349 793.809 261.515 793.332C261.687 792.861 261.773 792.261 261.773 791.532V787.913C261.773 787.402 261.849 786.932 262.002 786.501C262.154 786.063 262.436 785.685 262.847 785.367C263.258 785.042 263.845 784.794 264.607 784.622C265.369 784.443 266.357 784.353 267.57 784.353ZM258.82 771.725C259.801 771.725 260.653 771.818 261.375 772.004C262.098 772.189 262.694 772.491 263.165 772.908C263.636 773.326 263.984 773.883 264.209 774.579C264.441 775.268 264.557 776.12 264.557 777.134V779.988C264.557 781.055 264.779 781.821 265.223 782.285C265.667 782.742 266.45 782.971 267.57 782.971V784.462C266.357 784.462 265.369 784.373 264.607 784.194C263.845 784.015 263.258 783.766 262.847 783.448C262.436 783.13 262.154 782.756 262.002 782.325C261.849 781.887 261.773 781.413 261.773 780.903V777.283C261.773 776.548 261.687 775.944 261.515 775.474C261.349 774.997 261.051 774.645 260.62 774.42C260.189 774.194 259.589 774.082 258.82 774.082V771.725ZM267.57 782.971V785.835H264.816V782.971H267.57Z" fill="black"/>
<path d="M122.922 809.728C123.733 807.23 127.267 807.23 128.078 809.728L129.761 814.906C130.124 816.023 131.165 816.779 132.339 816.779H137.784C140.41 816.779 141.502 820.14 139.377 821.684L134.973 824.884C134.022 825.574 133.625 826.798 133.988 827.915L135.67 833.093C136.482 835.591 133.623 837.668 131.498 836.124L127.094 832.924C126.143 832.233 124.857 832.233 123.906 832.924L119.502 836.124C117.377 837.668 114.518 835.591 115.33 833.093L117.012 827.915C117.375 826.798 116.978 825.574 116.027 824.884L111.623 821.684C109.498 820.14 110.59 816.779 113.216 816.779H118.661C119.835 816.779 120.876 816.023 121.239 814.906L122.922 809.728Z" fill="#0EB400"/>
<path d="M156.922 809.728C157.733 807.23 161.267 807.23 162.078 809.728L163.761 814.906C164.124 816.023 165.165 816.779 166.339 816.779H171.784C174.41 816.779 175.502 820.14 173.377 821.684L168.973 824.884C168.022 825.574 167.625 826.798 167.988 827.915L169.67 833.093C170.482 835.591 167.623 837.668 165.498 836.124L161.094 832.924C160.143 832.233 158.857 832.233 157.906 832.924L153.502 836.124C151.377 837.668 148.518 835.591 149.33 833.093L151.012 827.915C151.375 826.798 150.978 825.574 150.027 824.884L145.623 821.684C143.498 820.14 144.59 816.779 147.216 816.779H152.661C153.835 816.779 154.876 816.023 155.239 814.906L156.922 809.728Z" fill="#0EB400"/>
<path d="M190.922 809.728C191.733 807.23 195.267 807.23 196.078 809.728L197.761 814.906C198.124 816.023 199.165 816.779 200.339 816.779H205.784C208.41 816.779 209.502 820.14 207.377 821.684L202.973 824.884C202.022 825.574 201.625 826.798 201.988 827.915L203.67 833.093C204.482 835.591 201.623 837.668 199.498 836.124L195.094 832.924C194.143 832.233 192.857 832.233 191.906 832.924L187.502 836.124C185.377 837.668 182.518 835.591 183.33 833.093L185.012 827.915C185.375 826.798 184.978 825.574 184.027 824.884L179.623 821.684C177.498 820.14 178.59 816.779 181.216 816.779H186.661C187.835 816.779 188.876 816.023 189.239 814.906L190.922 809.728Z" fill="#0EB400"/>
<path d="M224.922 809.728C225.733 807.23 229.267 807.23 230.078 809.728L231.761 814.906C232.124 816.023 233.165 816.779 234.339 816.779H239.784C242.41 816.779 243.502 820.14 241.377 821.684L236.973 824.884C236.022 825.574 235.625 826.798 235.988 827.915L237.67 833.093C238.482 835.591 235.623 837.668 233.498 836.124L229.094 832.924C228.143 832.233 226.857 832.233 225.906 832.924L221.502 836.124C219.377 837.668 216.518 835.591 217.33 833.093L219.012 827.915C219.375 826.798 218.978 825.574 218.027 824.884L213.623 821.684C211.498 820.14 212.59 816.779 215.216 816.779H220.661C221.835 816.779 222.876 816.023 223.239 814.906L224.922 809.728Z" fill="#0EB400"/>
<path d="M258.922 809.728C259.733 807.23 263.267 807.23 264.078 809.728L265.761 814.906C266.124 816.023 267.165 816.779 268.339 816.779H273.784C276.41 816.779 277.502 820.14 275.377 821.684L270.973 824.884C270.022 825.574 269.625 826.798 269.988 827.915L271.67 833.093C272.482 835.591 269.623 837.668 267.498 836.124L263.094 832.924C262.143 832.233 260.857 832.233 259.906 832.924L255.502 836.124C253.377 837.668 250.518 835.591 251.33 833.093L253.012 827.915C253.375 826.798 252.978 825.574 252.027 824.884L247.623 821.684C245.498 820.14 246.59 816.779 249.216 816.779H254.661C255.835 816.779 256.876 816.023 257.239 814.906L258.922 809.728Z" fill="#0EB400"/>
<path d="M127.492 847.806H129.484V869.55H127.492V847.806ZM112.948 862.662H114.748C118.372 862.662 121.612 862.518 125.452 861.894L125.668 863.526C121.732 864.174 118.468 864.318 114.748 864.318H112.948V862.662ZM112.9 849.846H122.932V857.598H114.94V863.286H112.948V855.966H120.916V851.478H112.9V849.846ZM138.698 860.766H140.69V869.526H138.698V860.766ZM146.45 860.766H148.466V869.526H146.45V860.766ZM133.754 860.502H153.434V862.134H133.754V860.502ZM136.226 848.67H138.218V851.574H148.946V848.67H150.914V857.958H136.226V848.67ZM138.218 853.206V856.302H148.946V853.206H138.218ZM171.648 847.806H173.64V869.55H171.648V847.806ZM157.104 862.662H158.904C162.528 862.662 165.768 862.518 169.608 861.894L169.824 863.526C165.888 864.174 162.624 864.318 158.904 864.318H157.104V862.662ZM157.056 849.846H167.088V857.598H159.096V863.286H157.104V855.966H165.072V851.478H157.056V849.846ZM182.854 860.766H184.846V869.526H182.854V860.766ZM190.606 860.766H192.622V869.526H190.606V860.766ZM177.91 860.502H197.59V862.134H177.91V860.502ZM180.382 848.67H182.374V851.574H193.102V848.67H195.07V857.958H180.382V848.67ZM182.374 853.206V856.302H193.102V853.206H182.374ZM215.805 847.806H217.797V869.55H215.805V847.806ZM201.261 862.662H203.061C206.685 862.662 209.925 862.518 213.765 861.894L213.981 863.526C210.045 864.174 206.781 864.318 203.061 864.318H201.261V862.662ZM201.213 849.846H211.245V857.598H203.253V863.286H201.261V855.966H209.229V851.478H201.213V849.846ZM227.011 860.766H229.003V869.526H227.011V860.766ZM234.763 860.766H236.779V869.526H234.763V860.766ZM222.067 860.502H241.747V862.134H222.067V860.502ZM224.539 848.67H226.531V851.574H237.259V848.67H239.227V857.958H224.539V848.67ZM226.531 853.206V856.302H237.259V853.206H226.531ZM259.937 847.83H261.953V859.758H259.937V847.83ZM245.273 857.67H247.025C250.961 857.67 253.865 857.55 257.345 856.974L257.561 858.63C253.985 859.182 251.057 859.302 247.025 859.302H245.273V857.67ZM245.225 848.886H255.065V854.766H247.217V858.75H245.273V853.206H253.121V850.494H245.225V848.886ZM247.913 860.838H249.881V863.382H259.985V860.838H261.953V869.238H247.913V860.838ZM249.881 864.966V867.606H259.985V864.966H249.881ZM266.223 860.742H285.903V862.374H266.223V860.742ZM271.311 861.63H273.327V869.526H271.311V861.63ZM278.775 861.63H280.767V869.526H278.775V861.63ZM268.575 848.67H283.503V854.262H270.639V857.982H268.623V852.726H281.511V850.278H268.575V848.67ZM268.623 856.926H284.007V858.534H268.623V856.926ZM304.069 847.806H306.061V869.55H304.069V847.806ZM289.549 849.654H291.517V855.39H297.781V849.654H299.773V864.318H289.549V849.654ZM291.517 856.974V862.686H297.781V856.974H291.517ZM310.379 860.742H330.059V862.374H310.379V860.742ZM315.467 861.63H317.483V869.526H315.467V861.63ZM322.931 861.63H324.923V869.526H322.931V861.63ZM312.731 848.67H327.659V854.262H314.795V857.982H312.779V852.726H325.667V850.278H312.731V848.67ZM312.779 856.926H328.163V858.534H312.779V856.926ZM348.225 847.806H350.217V869.55H348.225V847.806ZM333.705 849.654H335.673V855.39H341.937V849.654H343.929V864.318H333.705V849.654ZM335.673 856.974V862.686H341.937V856.974H335.673ZM360.319 859.686H362.287V862.71H360.319V859.686ZM366.463 859.686H368.431V862.71H366.463V859.686ZM354.535 858.414H374.215V860.022H354.535V858.414ZM357.151 861.63H359.119V863.958H369.703V861.63H371.671V869.238H357.151V861.63ZM359.119 865.47V867.678H369.703V865.47H359.119ZM357.031 848.286H371.671V853.206H359.047V856.134H357.079V851.742H369.727V849.774H357.031V848.286ZM357.079 855.222H372.151V856.734H357.079V855.222ZM392.43 847.806H394.422V869.55H392.43V847.806ZM377.886 862.662H379.686C383.31 862.662 386.55 862.518 390.39 861.894L390.606 863.526C386.67 864.174 383.406 864.318 379.686 864.318H377.886V862.662ZM377.838 849.846H387.87V857.598H379.878V863.286H377.886V855.966H385.854V851.478H377.838V849.846ZM401.308 848.142H403.276V850.158H413.764V848.142H415.756V855.294H401.308V848.142ZM403.276 851.694V853.758H413.764V851.694H403.276ZM398.692 857.07H418.3V858.702H398.692V857.07ZM401.068 860.814H415.804V865.638H403.084V868.326H401.116V864.198H413.836V862.326H401.068V860.814ZM401.116 867.75H416.452V869.286H401.116V867.75ZM404.044 857.502H406.012V861.534H404.044V857.502ZM411.148 857.502H413.116V861.534H411.148V857.502Z" fill="black"/>
</svg>
