<svg width="1212" height="367" viewBox="0 0 1212 367" fill="none" xmlns="http://www.w3.org/2000/svg">
<path d="M114.77 21.0556H132.85V23.1996H114.77V21.0556ZM111.506 33.4716H137.65V35.6476H111.506V33.4716ZM123.186 34.9116H125.842V48.1276H123.186V34.9116ZM131.602 21.0556H134.194V23.5516C134.194 26.5596 134.194 29.9516 133.106 34.8476L130.482 34.4956C131.602 29.8236 131.602 26.4636 131.602 23.5516V21.0556ZM162.96 19.1676H165.52V48.0956H162.96V19.1676ZM158.384 30.6236H163.92V32.7996H158.384V30.6236ZM156.56 19.7756H159.088V46.6556H156.56V19.7756ZM141.968 22.4956H153.008V40.3516H141.968V22.4956ZM150.512 24.6076H144.464V38.2396H150.512V24.6076ZM171.565 21.7596H184.845V35.1676H171.565V21.7596ZM182.253 23.9036H174.157V33.0236H182.253V23.9036ZM190.157 19.1356H192.813V40.3516H190.157V19.1356ZM191.981 27.9676H197.101V30.1756H191.981V27.9676ZM174.797 45.2796H194.125V47.4556H174.797V45.2796ZM174.797 38.3356H177.453V46.2076H174.797V38.3356ZM211.147 21.4716H213.515V22.3356C213.515 27.0076 208.203 30.2076 202.219 30.9436L201.259 28.8636C206.443 28.2556 211.147 25.6316 211.147 22.3356V21.4716ZM212.267 21.4716H214.603V22.3356C214.603 25.6316 219.307 28.2876 224.491 28.8636L223.531 30.9436C217.547 30.2076 212.267 27.0076 212.267 22.3356V21.4716ZM202.187 20.3516H223.595V22.4956H202.187V20.3516ZM199.787 33.6636H226.027V35.8396H199.787V33.6636ZM211.531 29.3436H214.155V34.7196H211.531V29.3436ZM202.699 38.7196H222.699V48.0956H220.043V40.8636H202.699V38.7196ZM232.552 32.6716H252.424V34.8476H232.552V32.6716ZM229.256 42.2396H255.464V44.4796H229.256V42.2396ZM240.968 33.5996H243.624V43.1356H240.968V33.5996ZM232.552 21.4716H252.136V23.6476H235.208V33.6316H232.552V21.4716Z" fill="black"/>
<path d="M163.928 120.057C162.012 120.057 160.286 119.676 158.75 118.914C157.215 118.151 155.984 117.106 155.058 115.777C154.133 114.449 153.626 112.935 153.539 111.236H157.46C157.612 112.75 158.298 114.002 159.518 114.993C160.748 115.973 162.219 116.463 163.928 116.463C165.301 116.463 166.52 116.142 167.587 115.499C168.666 114.857 169.51 113.975 170.119 112.853C170.74 111.721 171.051 110.441 171.051 109.014C171.051 107.555 170.729 106.254 170.087 105.11C169.455 103.956 168.584 103.047 167.473 102.382C166.362 101.718 165.094 101.38 163.667 101.369C162.643 101.359 161.592 101.517 160.514 101.843C159.436 102.159 158.549 102.567 157.852 103.068L154.062 102.611L156.087 86.1451H173.468V89.7388H159.485L158.309 99.6053H158.505C159.191 99.0608 160.051 98.6088 161.086 98.2495C162.121 97.8901 163.199 97.7104 164.32 97.7104C166.368 97.7104 168.192 98.2005 169.793 99.1806C171.404 100.15 172.668 101.478 173.582 103.166C174.508 104.854 174.971 106.782 174.971 108.949C174.971 111.084 174.492 112.989 173.533 114.666C172.586 116.333 171.279 117.65 169.613 118.619C167.947 119.578 166.052 120.057 163.928 120.057ZM183.077 119.861C182.271 119.861 181.58 119.572 181.003 118.995C180.426 118.418 180.137 117.727 180.137 116.921C180.137 116.115 180.426 115.423 181.003 114.846C181.58 114.269 182.271 113.98 183.077 113.98C183.883 113.98 184.575 114.269 185.152 114.846C185.729 115.423 186.018 116.115 186.018 116.921C186.018 117.454 185.882 117.944 185.609 118.391C185.348 118.837 184.994 119.197 184.547 119.469C184.112 119.73 183.622 119.861 183.077 119.861ZM202.614 120.057C200.153 120.057 198.057 119.387 196.325 118.048C194.594 116.697 193.271 114.743 192.356 112.183C191.441 109.613 190.984 106.51 190.984 102.872C190.984 99.2568 191.441 96.1694 192.356 93.6103C193.281 91.0402 194.61 89.08 196.342 87.7296C198.084 86.3683 200.175 85.6877 202.614 85.6877C205.054 85.6877 207.139 86.3683 208.871 87.7296C210.613 89.08 211.942 91.0402 212.856 93.6103C213.782 96.1694 214.245 99.2568 214.245 102.872C214.245 106.51 213.788 109.613 212.873 112.183C211.958 114.743 210.635 116.697 208.903 118.048C207.172 119.387 205.075 120.057 202.614 120.057ZM202.614 116.463C205.054 116.463 206.949 115.287 208.299 112.935C209.649 110.583 210.324 107.228 210.324 102.872C210.324 99.9756 210.014 97.5089 209.393 95.4725C208.784 93.436 207.901 91.8842 206.747 90.8169C205.604 89.7497 204.226 89.2161 202.614 89.2161C200.197 89.2161 198.307 90.4086 196.946 92.7935C195.585 95.1676 194.904 98.5272 194.904 102.872C194.904 105.769 195.209 108.23 195.819 110.256C196.429 112.281 197.305 113.822 198.449 114.879C199.603 115.935 200.992 116.463 202.614 116.463Z" fill="black"/>
<path d="M44.091 156.055C45.5878 151.448 52.1048 151.448 53.6016 156.055L56.7043 165.604C57.3737 167.664 59.2934 169.059 61.4596 169.059H71.5001C76.3438 169.059 78.3576 175.257 74.4391 178.104L66.3161 184.005C64.5636 185.279 63.8303 187.535 64.4997 189.596L67.6024 199.145C69.0992 203.751 63.8268 207.582 59.9082 204.735L51.7852 198.833C50.0328 197.56 47.6598 197.56 45.9074 198.833L37.7844 204.735C33.8658 207.582 28.5934 203.751 30.0902 199.145L33.1929 189.596C33.8622 187.535 33.1289 185.279 31.3765 184.005L23.2535 178.104C19.335 175.257 21.3488 169.059 26.1924 169.059H36.233C38.3991 169.059 40.3189 167.664 40.9883 165.604L44.091 156.055Z" fill="#0EB400"/>
<path d="M111.418 156.055C112.915 151.448 119.432 151.448 120.928 156.055L124.031 165.604C124.701 167.664 126.62 169.059 128.786 169.059H138.827C143.671 169.059 145.685 175.257 141.766 178.104L133.643 184.005C131.891 185.279 131.157 187.535 131.827 189.596L134.929 199.145C136.426 203.751 131.154 207.582 127.235 204.735L119.112 198.833C117.36 197.56 114.987 197.56 113.234 198.833L105.111 204.735C101.193 207.582 95.9203 203.751 97.4171 199.145L100.52 189.596C101.189 187.535 100.456 185.279 98.7034 184.005L90.5804 178.104C86.6619 175.257 88.6757 169.059 93.5193 169.059H103.56C105.726 169.059 107.646 167.664 108.315 165.604L111.418 156.055Z" fill="#0EB400"/>
<path d="M178.745 156.055C180.242 151.448 186.759 151.448 188.255 156.055L191.358 165.604C192.027 167.664 193.947 169.059 196.113 169.059H206.154C210.998 169.059 213.011 175.257 209.093 178.104L200.97 184.005C199.217 185.279 198.484 187.535 199.154 189.596L202.256 199.145C203.753 203.751 198.481 207.582 194.562 204.735L186.439 198.833C184.687 197.56 182.314 197.56 180.561 198.833L172.438 204.735C168.52 207.582 163.247 203.751 164.744 199.145L167.847 189.596C168.516 187.535 167.783 185.279 166.03 184.005L157.907 178.104C153.989 175.257 156.003 169.059 160.846 169.059H170.887C173.053 169.059 174.973 167.664 175.642 165.604L178.745 156.055Z" fill="#0EB400"/>
<path d="M246.071 156.055C247.568 151.448 254.085 151.448 255.582 156.055L258.685 165.604C259.354 167.664 261.274 169.059 263.44 169.059H273.481C278.324 169.059 280.338 175.257 276.42 178.104L268.297 184.005C266.544 185.279 265.811 187.535 266.48 189.596L269.583 199.145C271.08 203.751 265.807 207.582 261.889 204.735L253.766 198.833C252.013 197.56 249.64 197.56 247.888 198.833L239.765 204.735C235.846 207.582 230.574 203.751 232.071 199.145L235.173 189.596C235.843 187.535 235.109 185.279 233.357 184.005L225.234 178.104C221.315 175.257 223.329 169.059 228.173 169.059H238.213C240.38 169.059 242.299 167.664 242.969 165.604L246.071 156.055Z" fill="#0EB400"/>
<path d="M313.398 156.055C314.895 151.448 321.412 151.448 322.909 156.055L326.012 165.604C326.681 167.664 328.601 169.059 330.767 169.059H340.808C345.651 169.059 347.665 175.257 343.746 178.104L335.623 184.005C333.871 185.279 333.138 187.535 333.807 189.596L336.91 199.145C338.407 203.751 333.134 207.582 329.216 204.735L321.093 198.833C319.34 197.56 316.967 197.56 315.215 198.833L307.092 204.735C303.173 207.582 297.901 203.751 299.398 199.145L302.5 189.596C303.17 187.535 302.436 185.279 300.684 184.005L292.561 178.104C288.642 175.257 290.656 169.059 295.5 169.059H305.54C307.707 169.059 309.626 167.664 310.296 165.604L313.398 156.055Z" fill="#0EB400"/>
<path d="M120.885 245.122C120.885 242.616 121.21 240.313 121.86 238.211C122.516 236.104 123.451 234.165 124.664 232.395H126.732C126.255 233.051 125.807 233.86 125.39 234.821C124.979 235.775 124.617 236.826 124.306 237.973C123.994 239.113 123.749 240.293 123.57 241.513C123.398 242.732 123.311 243.935 123.311 245.122C123.311 246.7 123.464 248.3 123.769 249.925C124.074 251.549 124.485 253.057 125.002 254.449C125.519 255.841 126.096 256.974 126.732 257.849H124.664C123.451 256.079 122.516 254.144 121.86 252.042C121.21 249.934 120.885 247.628 120.885 245.122ZM147.871 230.557H150.195V255.925H147.871V230.557ZM130.903 247.889H133.003C137.231 247.889 141.011 247.721 145.491 246.993L145.743 248.897C141.151 249.653 137.343 249.821 133.003 249.821H130.903V247.889ZM130.847 232.937H142.551V241.981H133.227V248.617H130.903V240.077H140.199V234.841H130.847V232.937ZM160.945 245.677H163.269V255.897H160.945V245.677ZM169.989 245.677H172.341V255.897H169.989V245.677ZM155.177 245.369H178.137V247.273H155.177V245.369ZM158.061 231.565H160.385V234.953H172.901V231.565H175.197V242.401H158.061V231.565ZM160.385 236.857V240.469H172.901V236.857H160.385ZM207.318 230.585H209.642V249.289H207.318V230.585ZM201.858 238.397H207.766V240.329H201.858V238.397ZM199.506 232.545H201.942C201.942 239.069 197.35 244.025 190.21 246.405L189.202 244.529C195.39 242.457 199.506 238.481 199.506 233.469V232.545ZM190.462 232.545H201.018V234.449H190.462V232.545ZM193.654 253.433H210.286V255.337H193.654V253.433ZM193.654 247.413H195.978V254.385H193.654V247.413ZM224.815 231.481H226.859V232.881C226.859 237.725 221.931 241.197 216.667 242.093L215.743 240.217C220.363 239.517 224.815 236.493 224.815 232.881V231.481ZM225.235 231.481H227.251V232.881C227.251 236.409 231.759 239.517 236.323 240.217L235.399 242.093C230.191 241.197 225.235 237.669 225.235 232.881V231.481ZM224.815 246.265H227.111V255.897H224.815V246.265ZM214.595 244.837H237.471V246.769H214.595V244.837ZM246.112 245.122C246.112 247.628 245.784 249.934 245.128 252.042C244.478 254.144 243.547 256.079 242.334 257.849H240.266C240.743 257.193 241.187 256.384 241.598 255.423C242.016 254.469 242.38 253.421 242.692 252.281C243.003 251.134 243.245 249.951 243.418 248.731C243.597 247.505 243.686 246.302 243.686 245.122C243.686 243.544 243.534 241.943 243.229 240.319C242.924 238.695 242.513 237.187 241.996 235.795C241.479 234.403 240.902 233.27 240.266 232.395H242.334C243.547 234.165 244.478 236.104 245.128 238.211C245.784 240.313 246.112 242.616 246.112 245.122Z" fill="#666666"/>
<path d="M432.972 27.9347C431.805 27.9347 430.754 27.7027 429.82 27.2386C428.885 26.7746 428.136 26.1383 427.572 25.3295C427.009 24.5208 426.701 23.5994 426.648 22.5653H429.034C429.127 23.4867 429.545 24.2491 430.287 24.8523C431.036 25.4489 431.931 25.7472 432.972 25.7472C433.807 25.7472 434.549 25.5516 435.199 25.1605C435.855 24.7694 436.369 24.2325 436.74 23.5497C437.118 22.8603 437.307 22.0814 437.307 21.2131C437.307 20.3248 437.111 19.5327 436.72 18.8366C436.336 18.134 435.805 17.5805 435.129 17.1761C434.453 16.7718 433.681 16.5663 432.812 16.5597C432.189 16.553 431.55 16.6491 430.893 16.848C430.237 17.0402 429.697 17.2888 429.273 17.5938L426.966 17.3153L428.199 7.29261H438.778V9.48011H430.267L429.551 15.4858H429.67C430.088 15.1544 430.612 14.8793 431.241 14.6605C431.871 14.4418 432.527 14.3324 433.21 14.3324C434.456 14.3324 435.567 14.6307 436.541 15.2273C437.522 15.8172 438.291 16.6259 438.848 17.6534C439.411 18.6809 439.693 19.8542 439.693 21.1733C439.693 22.4725 439.402 23.6326 438.818 24.6534C438.241 25.6676 437.446 26.4697 436.432 27.0597C435.418 27.643 434.264 27.9347 432.972 27.9347ZM456.431 10.8562H462.059V12.7882H456.431V10.8562ZM461.415 4.52825H463.739V19.3402H461.415V4.52825ZM447.331 20.5722H463.739V29.5042H447.331V20.5722ZM461.471 22.4202H449.599V27.6282H461.471V22.4202ZM449.375 6.93625H451.279V8.98025C451.279 13.6002 448.423 17.5482 444.195 19.1162L442.991 17.2682C446.771 15.9242 449.375 12.5642 449.375 8.98025V6.93625ZM449.823 6.93625H451.699V8.95225C451.699 12.2283 454.163 15.3922 457.831 16.6802L456.655 18.5282C452.539 17.0442 449.823 13.2082 449.823 8.95225V6.93625ZM443.719 6.15225H457.243V8.02825H443.719V6.15225Z" fill="#666666"/>
<path d="M426.131 83.4801V81.4517L435.08 67.2926H436.551V70.4347H435.557L428.795 81.1335V81.2926H440.847V83.4801H426.131ZM435.716 87.6562V82.8636V81.919V67.2926H438.062V87.6562H435.716ZM457.361 70.8562H462.989V72.7882H457.361V70.8562ZM462.345 64.5282H464.669V79.3402H462.345V64.5282ZM448.261 80.5722H464.669V89.5042H448.261V80.5722ZM462.401 82.4202H450.529V87.6282H462.401V82.4202ZM450.305 66.9362H452.209V68.9802C452.209 73.6002 449.353 77.5482 445.125 79.1162L443.921 77.2682C447.701 75.9242 450.305 72.5642 450.305 68.9802V66.9362ZM450.753 66.9362H452.629V68.9522C452.629 72.2283 455.093 75.3922 458.761 76.6802L457.585 78.5282C453.469 77.0442 450.753 73.2082 450.753 68.9522V66.9362ZM444.649 66.1522H458.173V68.0282H444.649V66.1522Z" fill="#666666"/>
<path d="M433.489 147.935C432.176 147.935 431.006 147.709 429.979 147.259C428.958 146.808 428.146 146.181 427.543 145.379C426.946 144.571 426.621 143.633 426.568 142.565H429.074C429.127 143.222 429.352 143.788 429.75 144.266C430.148 144.736 430.668 145.101 431.311 145.359C431.954 145.618 432.667 145.747 433.449 145.747C434.324 145.747 435.099 145.595 435.776 145.29C436.452 144.985 436.982 144.561 437.366 144.017C437.751 143.473 437.943 142.844 437.943 142.128C437.943 141.379 437.758 140.719 437.386 140.149C437.015 139.572 436.472 139.122 435.756 138.797C435.04 138.472 434.165 138.31 433.131 138.31H431.5V136.122H433.131C433.939 136.122 434.649 135.976 435.259 135.685C435.875 135.393 436.356 134.982 436.7 134.452C437.052 133.921 437.227 133.298 437.227 132.582C437.227 131.893 437.075 131.293 436.77 130.783C436.465 130.272 436.034 129.875 435.477 129.589C434.927 129.304 434.277 129.162 433.528 129.162C432.826 129.162 432.163 129.291 431.54 129.55C430.923 129.802 430.42 130.17 430.028 130.653C429.637 131.131 429.425 131.707 429.392 132.384H427.006C427.045 131.316 427.367 130.382 427.97 129.58C428.573 128.771 429.362 128.141 430.337 127.69C431.318 127.24 432.395 127.014 433.568 127.014C434.828 127.014 435.908 127.269 436.81 127.78C437.711 128.284 438.404 128.95 438.888 129.778C439.372 130.607 439.614 131.502 439.614 132.463C439.614 133.61 439.312 134.588 438.709 135.396C438.112 136.205 437.3 136.765 436.273 137.077V137.236C437.559 137.448 438.563 137.995 439.286 138.876C440.008 139.751 440.369 140.835 440.369 142.128C440.369 143.235 440.068 144.229 439.464 145.111C438.868 145.986 438.053 146.675 437.018 147.179C435.984 147.683 434.808 147.935 433.489 147.935ZM457.224 130.856H462.852V132.788H457.224V130.856ZM462.208 124.528H464.532V139.34H462.208V124.528ZM448.124 140.572H464.532V149.504H448.124V140.572ZM462.264 142.42H450.392V147.628H462.264V142.42ZM450.168 126.936H452.072V128.98C452.072 133.6 449.216 137.548 444.988 139.116L443.784 137.268C447.564 135.924 450.168 132.564 450.168 128.98V126.936ZM450.616 126.936H452.492V128.952C452.492 132.228 454.956 135.392 458.624 136.68L457.448 138.528C453.332 137.044 450.616 133.208 450.616 128.952V126.936ZM444.512 126.152H458.036V128.028H444.512V126.152Z" fill="#666666"/>
<path d="M426.608 208.656V206.866L433.33 199.509C434.118 198.647 434.768 197.898 435.278 197.261C435.789 196.618 436.167 196.015 436.412 195.452C436.664 194.882 436.79 194.285 436.79 193.662C436.79 192.946 436.617 192.326 436.273 191.803C435.935 191.279 435.471 190.875 434.881 190.589C434.291 190.304 433.628 190.162 432.892 190.162C432.11 190.162 431.427 190.324 430.844 190.649C430.267 190.967 429.82 191.415 429.501 191.991C429.19 192.568 429.034 193.244 429.034 194.02H426.688C426.688 192.827 426.963 191.779 427.513 190.878C428.063 189.976 428.812 189.274 429.76 188.77C430.714 188.266 431.785 188.014 432.972 188.014C434.165 188.014 435.222 188.266 436.143 188.77C437.065 189.274 437.787 189.953 438.311 190.808C438.835 191.663 439.097 192.615 439.097 193.662C439.097 194.411 438.961 195.143 438.689 195.859C438.424 196.569 437.96 197.361 437.297 198.236C436.641 199.104 435.729 200.165 434.562 201.418L429.989 206.31V206.469H439.455V208.656H426.608ZM456.349 191.856H461.977V193.788H456.349V191.856ZM461.333 185.528H463.657V200.34H461.333V185.528ZM447.249 201.572H463.657V210.504H447.249V201.572ZM461.389 203.42H449.517V208.628H461.389V203.42ZM449.293 187.936H451.197V189.98C451.197 194.6 448.341 198.548 444.113 200.116L442.909 198.268C446.689 196.924 449.293 193.564 449.293 189.98V187.936ZM449.741 187.936H451.617V189.952C451.617 193.228 454.081 196.392 457.749 197.68L456.573 199.528C452.457 198.044 449.741 194.208 449.741 189.952V187.936ZM443.637 187.152H457.161V189.028H443.637V187.152Z" fill="#666666"/>
<path d="M433.767 248.293V268.656H431.301V250.878H431.182L426.21 254.179V251.673L431.301 248.293H433.767ZM452.412 251.856H458.04V253.788H452.412V251.856ZM457.396 245.528H459.72V260.34H457.396V245.528ZM443.312 261.572H459.72V270.504H443.312V261.572ZM457.452 263.42H445.58V268.628H457.452V263.42ZM445.356 247.936H447.26V249.98C447.26 254.6 444.404 258.548 440.176 260.116L438.972 258.268C442.752 256.924 445.356 253.564 445.356 249.98V247.936ZM445.804 247.936H447.68V249.952C447.68 253.228 450.144 256.392 453.812 257.68L452.636 259.528C448.52 258.044 445.804 254.208 445.804 249.952V247.936ZM439.7 247.152H453.224V249.028H439.7V247.152Z" fill="#666666"/>
<rect x="507.5" y="0.65625" width="598" height="34" rx="17" fill="#0EB400"/>
<rect x="507.5" y="60.6562" width="598" height="34" rx="17" fill="#E9E9E9"/>
<rect x="507.5" y="120.656" width="598" height="34" rx="17" fill="#E9E9E9"/>
<rect x="507.5" y="180.656" width="598" height="34" rx="17" fill="#E9E9E9"/>
<rect x="507.5" y="240.656" width="598" height="34" rx="17" fill="#E9E9E9"/>
<path d="M1150.44 11.7017V29.1562H1148.33V13.9176H1148.23L1143.97 16.7472V14.5994L1148.33 11.7017H1150.44ZM1161.16 29.3949C1159.87 29.3949 1158.78 29.0455 1157.88 28.3466C1156.97 27.642 1156.28 26.6222 1155.8 25.2869C1155.33 23.946 1155.09 22.3267 1155.09 20.429C1155.09 18.5426 1155.33 16.9318 1155.8 15.5966C1156.29 14.2557 1156.98 13.233 1157.88 12.5284C1158.79 11.8182 1159.88 11.4631 1161.16 11.4631C1162.43 11.4631 1163.52 11.8182 1164.42 12.5284C1165.33 13.233 1166.02 14.2557 1166.5 15.5966C1166.98 16.9318 1167.22 18.5426 1167.22 20.429C1167.22 22.3267 1166.99 23.946 1166.51 25.2869C1166.03 26.6222 1165.34 27.642 1164.44 28.3466C1163.53 29.0455 1162.44 29.3949 1161.16 29.3949ZM1161.16 27.5199C1162.43 27.5199 1163.42 26.9062 1164.12 25.679C1164.83 24.4517 1165.18 22.7017 1165.18 20.429C1165.18 18.9176 1165.02 17.6307 1164.69 16.5682C1164.38 15.5057 1163.91 14.696 1163.31 14.1392C1162.72 13.5824 1162 13.304 1161.16 13.304C1159.89 13.304 1158.91 13.9261 1158.2 15.1705C1157.49 16.4091 1157.13 18.1619 1157.13 20.429C1157.13 21.9403 1157.29 23.2244 1157.61 24.2812C1157.93 25.3381 1158.39 26.142 1158.98 26.6932C1159.59 27.2443 1160.31 27.5199 1161.16 27.5199ZM1176.16 29.3949C1174.87 29.3949 1173.78 29.0455 1172.88 28.3466C1171.97 27.642 1171.28 26.6222 1170.8 25.2869C1170.33 23.946 1170.09 22.3267 1170.09 20.429C1170.09 18.5426 1170.33 16.9318 1170.8 15.5966C1171.29 14.2557 1171.98 13.233 1172.88 12.5284C1173.79 11.8182 1174.88 11.4631 1176.16 11.4631C1177.43 11.4631 1178.52 11.8182 1179.42 12.5284C1180.33 13.233 1181.02 14.2557 1181.5 15.5966C1181.98 16.9318 1182.22 18.5426 1182.22 20.429C1182.22 22.3267 1181.99 23.946 1181.51 25.2869C1181.03 26.6222 1180.34 27.642 1179.44 28.3466C1178.53 29.0455 1177.44 29.3949 1176.16 29.3949ZM1176.16 27.5199C1177.43 27.5199 1178.42 26.9062 1179.12 25.679C1179.83 24.4517 1180.18 22.7017 1180.18 20.429C1180.18 18.9176 1180.02 17.6307 1179.69 16.5682C1179.38 15.5057 1178.91 14.696 1178.31 14.1392C1177.72 13.5824 1177 13.304 1176.16 13.304C1174.89 13.304 1173.91 13.9261 1173.2 15.1705C1172.49 16.4091 1172.13 18.1619 1172.13 20.429C1172.13 21.9403 1172.29 23.2244 1172.61 24.2812C1172.93 25.3381 1173.39 26.142 1173.98 26.6932C1174.59 27.2443 1175.31 27.5199 1176.16 27.5199ZM1194.36 25.8835V24.9631C1194.36 24.3267 1194.49 23.7443 1194.75 23.2159C1195.02 22.6818 1195.41 22.2557 1195.91 21.9375C1196.42 21.6136 1197.04 21.4517 1197.77 21.4517C1198.51 21.4517 1199.13 21.6136 1199.63 21.9375C1200.13 22.2557 1200.51 22.6818 1200.76 23.2159C1201.02 23.7443 1201.14 24.3267 1201.14 24.9631V25.8835C1201.14 26.5199 1201.01 27.1051 1200.75 27.6392C1200.5 28.1676 1200.12 28.5937 1199.61 28.9176C1199.11 29.2358 1198.5 29.3949 1197.77 29.3949C1197.03 29.3949 1196.41 29.2358 1195.9 28.9176C1195.4 28.5937 1195.01 28.1676 1194.75 27.6392C1194.49 27.1051 1194.36 26.5199 1194.36 25.8835ZM1196.1 24.9631V25.8835C1196.1 26.4119 1196.22 26.8864 1196.47 27.3068C1196.72 27.7216 1197.16 27.929 1197.77 27.929C1198.37 27.929 1198.79 27.7216 1199.03 27.3068C1199.28 26.8864 1199.41 26.4119 1199.41 25.8835V24.9631C1199.41 24.4347 1199.29 23.9631 1199.05 23.5483C1198.81 23.1278 1198.38 22.9176 1197.77 22.9176C1197.17 22.9176 1196.74 23.1278 1196.48 23.5483C1196.23 23.9631 1196.1 24.4347 1196.1 24.9631ZM1185.67 15.8949V14.9744C1185.67 14.3381 1185.8 13.7557 1186.06 13.2273C1186.33 12.6932 1186.71 12.267 1187.22 11.9489C1187.73 11.625 1188.35 11.4631 1189.08 11.4631C1189.82 11.4631 1190.43 11.625 1190.93 11.9489C1191.43 12.267 1191.81 12.6932 1192.07 13.2273C1192.32 13.7557 1192.45 14.3381 1192.45 14.9744V15.8949C1192.45 16.5312 1192.32 17.1165 1192.06 17.6506C1191.8 18.179 1191.42 18.6051 1190.92 18.929C1190.42 19.2472 1189.8 19.4062 1189.08 19.4062C1188.34 19.4062 1187.72 19.2472 1187.21 18.929C1186.7 18.6051 1186.32 18.179 1186.06 17.6506C1185.8 17.1165 1185.67 16.5312 1185.67 15.8949ZM1187.41 14.9744V15.8949C1187.41 16.4233 1187.53 16.8977 1187.78 17.3182C1188.03 17.733 1188.46 17.9403 1189.08 17.9403C1189.67 17.9403 1190.09 17.733 1190.34 17.3182C1190.59 16.8977 1190.71 16.4233 1190.71 15.8949V14.9744C1190.71 14.446 1190.59 13.9744 1190.36 13.5597C1190.12 13.1392 1189.69 12.929 1189.08 12.929C1188.48 12.929 1188.05 13.1392 1187.79 13.5597C1187.53 13.9744 1187.41 14.446 1187.41 14.9744ZM1186.32 29.1562L1198.32 11.7017H1200.26L1188.26 29.1562H1186.32Z" fill="#666666"/>
<path d="M1167.25 89.3949C1165.97 89.3949 1164.87 89.0455 1163.97 88.3466C1163.07 87.642 1162.38 86.6222 1161.9 85.2869C1161.42 83.946 1161.18 82.3267 1161.18 80.429C1161.18 78.5426 1161.42 76.9318 1161.9 75.5966C1162.38 74.2557 1163.07 73.233 1163.98 72.5284C1164.89 71.8182 1165.98 71.4631 1167.25 71.4631C1168.52 71.4631 1169.61 71.8182 1170.51 72.5284C1171.42 73.233 1172.12 74.2557 1172.59 75.5966C1173.08 76.9318 1173.32 78.5426 1173.32 80.429C1173.32 82.3267 1173.08 83.946 1172.6 85.2869C1172.12 86.6222 1171.43 87.642 1170.53 88.3466C1169.63 89.0455 1168.53 89.3949 1167.25 89.3949ZM1167.25 87.5199C1168.52 87.5199 1169.51 86.9062 1170.22 85.679C1170.92 84.4517 1171.27 82.7017 1171.27 80.429C1171.27 78.9176 1171.11 77.6307 1170.79 76.5682C1170.47 75.5057 1170.01 74.696 1169.41 74.1392C1168.81 73.5824 1168.09 73.304 1167.25 73.304C1165.99 73.304 1165 73.9261 1164.29 75.1705C1163.58 76.4091 1163.23 78.1619 1163.23 80.429C1163.23 81.9403 1163.39 83.2244 1163.7 84.2812C1164.02 85.3381 1164.48 86.142 1165.08 86.6932C1165.68 87.2443 1166.4 87.5199 1167.25 87.5199ZM1185.45 85.8835V84.9631C1185.45 84.3267 1185.59 83.7443 1185.85 83.2159C1186.11 82.6818 1186.5 82.2557 1187.01 81.9375C1187.52 81.6136 1188.14 81.4517 1188.86 81.4517C1189.6 81.4517 1190.22 81.6136 1190.72 81.9375C1191.22 82.2557 1191.6 82.6818 1191.86 83.2159C1192.11 83.7443 1192.24 84.3267 1192.24 84.9631V85.8835C1192.24 86.5199 1192.11 87.1051 1191.85 87.6392C1191.59 88.1676 1191.21 88.5937 1190.7 88.9176C1190.2 89.2358 1189.59 89.3949 1188.86 89.3949C1188.13 89.3949 1187.5 89.2358 1187 88.9176C1186.49 88.5937 1186.11 88.1676 1185.85 87.6392C1185.59 87.1051 1185.45 86.5199 1185.45 85.8835ZM1187.19 84.9631V85.8835C1187.19 86.4119 1187.32 86.8864 1187.57 87.3068C1187.82 87.7216 1188.25 87.929 1188.86 87.929C1189.46 87.929 1189.88 87.7216 1190.12 87.3068C1190.38 86.8864 1190.5 86.4119 1190.5 85.8835V84.9631C1190.5 84.4347 1190.38 83.9631 1190.14 83.5483C1189.9 83.1278 1189.48 82.9176 1188.86 82.9176C1188.27 82.9176 1187.84 83.1278 1187.58 83.5483C1187.32 83.9631 1187.19 84.4347 1187.19 84.9631ZM1176.76 75.8949V74.9744C1176.76 74.3381 1176.89 73.7557 1177.15 73.2273C1177.42 72.6932 1177.81 72.267 1178.31 71.9489C1178.82 71.625 1179.44 71.4631 1180.17 71.4631C1180.91 71.4631 1181.53 71.625 1182.03 71.9489C1182.53 72.267 1182.91 72.6932 1183.16 73.2273C1183.42 73.7557 1183.55 74.3381 1183.55 74.9744V75.8949C1183.55 76.5312 1183.41 77.1165 1183.15 77.6506C1182.9 78.179 1182.52 78.6051 1182.01 78.929C1181.51 79.2472 1180.9 79.4062 1180.17 79.4062C1179.43 79.4062 1178.81 79.2472 1178.3 78.929C1177.8 78.6051 1177.41 78.179 1177.15 77.6506C1176.89 77.1165 1176.76 76.5312 1176.76 75.8949ZM1178.5 74.9744V75.8949C1178.5 76.4233 1178.62 76.8977 1178.88 77.3182C1179.12 77.733 1179.56 77.9403 1180.17 77.9403C1180.77 77.9403 1181.19 77.733 1181.43 77.3182C1181.68 76.8977 1181.81 76.4233 1181.81 75.8949V74.9744C1181.81 74.446 1181.69 73.9744 1181.45 73.5597C1181.21 73.1392 1180.78 72.929 1180.17 72.929C1179.57 72.929 1179.14 73.1392 1178.88 73.5597C1178.63 73.9744 1178.5 74.446 1178.5 74.9744ZM1177.41 89.1562L1189.41 71.7017H1191.35L1179.35 89.1562H1177.41Z" fill="#666666"/>
<path d="M1167.25 149.395C1165.97 149.395 1164.87 149.045 1163.97 148.347C1163.07 147.642 1162.38 146.622 1161.9 145.287C1161.42 143.946 1161.18 142.327 1161.18 140.429C1161.18 138.543 1161.42 136.932 1161.9 135.597C1162.38 134.256 1163.07 133.233 1163.98 132.528C1164.89 131.818 1165.98 131.463 1167.25 131.463C1168.52 131.463 1169.61 131.818 1170.51 132.528C1171.42 133.233 1172.12 134.256 1172.59 135.597C1173.08 136.932 1173.32 138.543 1173.32 140.429C1173.32 142.327 1173.08 143.946 1172.6 145.287C1172.12 146.622 1171.43 147.642 1170.53 148.347C1169.63 149.045 1168.53 149.395 1167.25 149.395ZM1167.25 147.52C1168.52 147.52 1169.51 146.906 1170.22 145.679C1170.92 144.452 1171.27 142.702 1171.27 140.429C1171.27 138.918 1171.11 137.631 1170.79 136.568C1170.47 135.506 1170.01 134.696 1169.41 134.139C1168.81 133.582 1168.09 133.304 1167.25 133.304C1165.99 133.304 1165 133.926 1164.29 135.17C1163.58 136.409 1163.23 138.162 1163.23 140.429C1163.23 141.94 1163.39 143.224 1163.7 144.281C1164.02 145.338 1164.48 146.142 1165.08 146.693C1165.68 147.244 1166.4 147.52 1167.25 147.52ZM1185.45 145.884V144.963C1185.45 144.327 1185.59 143.744 1185.85 143.216C1186.11 142.682 1186.5 142.256 1187.01 141.938C1187.52 141.614 1188.14 141.452 1188.86 141.452C1189.6 141.452 1190.22 141.614 1190.72 141.938C1191.22 142.256 1191.6 142.682 1191.86 143.216C1192.11 143.744 1192.24 144.327 1192.24 144.963V145.884C1192.24 146.52 1192.11 147.105 1191.85 147.639C1191.59 148.168 1191.21 148.594 1190.7 148.918C1190.2 149.236 1189.59 149.395 1188.86 149.395C1188.13 149.395 1187.5 149.236 1187 148.918C1186.49 148.594 1186.11 148.168 1185.85 147.639C1185.59 147.105 1185.45 146.52 1185.45 145.884ZM1187.19 144.963V145.884C1187.19 146.412 1187.32 146.886 1187.57 147.307C1187.82 147.722 1188.25 147.929 1188.86 147.929C1189.46 147.929 1189.88 147.722 1190.12 147.307C1190.38 146.886 1190.5 146.412 1190.5 145.884V144.963C1190.5 144.435 1190.38 143.963 1190.14 143.548C1189.9 143.128 1189.48 142.918 1188.86 142.918C1188.27 142.918 1187.84 143.128 1187.58 143.548C1187.32 143.963 1187.19 144.435 1187.19 144.963ZM1176.76 135.895V134.974C1176.76 134.338 1176.89 133.756 1177.15 133.227C1177.42 132.693 1177.81 132.267 1178.31 131.949C1178.82 131.625 1179.44 131.463 1180.17 131.463C1180.91 131.463 1181.53 131.625 1182.03 131.949C1182.53 132.267 1182.91 132.693 1183.16 133.227C1183.42 133.756 1183.55 134.338 1183.55 134.974V135.895C1183.55 136.531 1183.41 137.116 1183.15 137.651C1182.9 138.179 1182.52 138.605 1182.01 138.929C1181.51 139.247 1180.9 139.406 1180.17 139.406C1179.43 139.406 1178.81 139.247 1178.3 138.929C1177.8 138.605 1177.41 138.179 1177.15 137.651C1176.89 137.116 1176.76 136.531 1176.76 135.895ZM1178.5 134.974V135.895C1178.5 136.423 1178.62 136.898 1178.88 137.318C1179.12 137.733 1179.56 137.94 1180.17 137.94C1180.77 137.94 1181.19 137.733 1181.43 137.318C1181.68 136.898 1181.81 136.423 1181.81 135.895V134.974C1181.81 134.446 1181.69 133.974 1181.45 133.56C1181.21 133.139 1180.78 132.929 1180.17 132.929C1179.57 132.929 1179.14 133.139 1178.88 133.56C1178.63 133.974 1178.5 134.446 1178.5 134.974ZM1177.41 149.156L1189.41 131.702H1191.35L1179.35 149.156H1177.41Z" fill="#666666"/>
<path d="M1167.25 209.395C1165.97 209.395 1164.87 209.045 1163.97 208.347C1163.07 207.642 1162.38 206.622 1161.9 205.287C1161.42 203.946 1161.18 202.327 1161.18 200.429C1161.18 198.543 1161.42 196.932 1161.9 195.597C1162.38 194.256 1163.07 193.233 1163.98 192.528C1164.89 191.818 1165.98 191.463 1167.25 191.463C1168.52 191.463 1169.61 191.818 1170.51 192.528C1171.42 193.233 1172.12 194.256 1172.59 195.597C1173.08 196.932 1173.32 198.543 1173.32 200.429C1173.32 202.327 1173.08 203.946 1172.6 205.287C1172.12 206.622 1171.43 207.642 1170.53 208.347C1169.63 209.045 1168.53 209.395 1167.25 209.395ZM1167.25 207.52C1168.52 207.52 1169.51 206.906 1170.22 205.679C1170.92 204.452 1171.27 202.702 1171.27 200.429C1171.27 198.918 1171.11 197.631 1170.79 196.568C1170.47 195.506 1170.01 194.696 1169.41 194.139C1168.81 193.582 1168.09 193.304 1167.25 193.304C1165.99 193.304 1165 193.926 1164.29 195.17C1163.58 196.409 1163.23 198.162 1163.23 200.429C1163.23 201.94 1163.39 203.224 1163.7 204.281C1164.02 205.338 1164.48 206.142 1165.08 206.693C1165.68 207.244 1166.4 207.52 1167.25 207.52ZM1185.45 205.884V204.963C1185.45 204.327 1185.59 203.744 1185.85 203.216C1186.11 202.682 1186.5 202.256 1187.01 201.938C1187.52 201.614 1188.14 201.452 1188.86 201.452C1189.6 201.452 1190.22 201.614 1190.72 201.938C1191.22 202.256 1191.6 202.682 1191.86 203.216C1192.11 203.744 1192.24 204.327 1192.24 204.963V205.884C1192.24 206.52 1192.11 207.105 1191.85 207.639C1191.59 208.168 1191.21 208.594 1190.7 208.918C1190.2 209.236 1189.59 209.395 1188.86 209.395C1188.13 209.395 1187.5 209.236 1187 208.918C1186.49 208.594 1186.11 208.168 1185.85 207.639C1185.59 207.105 1185.45 206.52 1185.45 205.884ZM1187.19 204.963V205.884C1187.19 206.412 1187.32 206.886 1187.57 207.307C1187.82 207.722 1188.25 207.929 1188.86 207.929C1189.46 207.929 1189.88 207.722 1190.12 207.307C1190.38 206.886 1190.5 206.412 1190.5 205.884V204.963C1190.5 204.435 1190.38 203.963 1190.14 203.548C1189.9 203.128 1189.48 202.918 1188.86 202.918C1188.27 202.918 1187.84 203.128 1187.58 203.548C1187.32 203.963 1187.19 204.435 1187.19 204.963ZM1176.76 195.895V194.974C1176.76 194.338 1176.89 193.756 1177.15 193.227C1177.42 192.693 1177.81 192.267 1178.31 191.949C1178.82 191.625 1179.44 191.463 1180.17 191.463C1180.91 191.463 1181.53 191.625 1182.03 191.949C1182.53 192.267 1182.91 192.693 1183.16 193.227C1183.42 193.756 1183.55 194.338 1183.55 194.974V195.895C1183.55 196.531 1183.41 197.116 1183.15 197.651C1182.9 198.179 1182.52 198.605 1182.01 198.929C1181.51 199.247 1180.9 199.406 1180.17 199.406C1179.43 199.406 1178.81 199.247 1178.3 198.929C1177.8 198.605 1177.41 198.179 1177.15 197.651C1176.89 197.116 1176.76 196.531 1176.76 195.895ZM1178.5 194.974V195.895C1178.5 196.423 1178.62 196.898 1178.88 197.318C1179.12 197.733 1179.56 197.94 1180.17 197.94C1180.77 197.94 1181.19 197.733 1181.43 197.318C1181.68 196.898 1181.81 196.423 1181.81 195.895V194.974C1181.81 194.446 1181.69 193.974 1181.45 193.56C1181.21 193.139 1180.78 192.929 1180.17 192.929C1179.57 192.929 1179.14 193.139 1178.88 193.56C1178.63 193.974 1178.5 194.446 1178.5 194.974ZM1177.41 209.156L1189.41 191.702H1191.35L1179.35 209.156H1177.41Z" fill="#666666"/>
<path d="M1167.25 269.395C1165.97 269.395 1164.87 269.045 1163.97 268.347C1163.07 267.642 1162.38 266.622 1161.9 265.287C1161.42 263.946 1161.18 262.327 1161.18 260.429C1161.18 258.543 1161.42 256.932 1161.9 255.597C1162.38 254.256 1163.07 253.233 1163.98 252.528C1164.89 251.818 1165.98 251.463 1167.25 251.463C1168.52 251.463 1169.61 251.818 1170.51 252.528C1171.42 253.233 1172.12 254.256 1172.59 255.597C1173.08 256.932 1173.32 258.543 1173.32 260.429C1173.32 262.327 1173.08 263.946 1172.6 265.287C1172.12 266.622 1171.43 267.642 1170.53 268.347C1169.63 269.045 1168.53 269.395 1167.25 269.395ZM1167.25 267.52C1168.52 267.52 1169.51 266.906 1170.22 265.679C1170.92 264.452 1171.27 262.702 1171.27 260.429C1171.27 258.918 1171.11 257.631 1170.79 256.568C1170.47 255.506 1170.01 254.696 1169.41 254.139C1168.81 253.582 1168.09 253.304 1167.25 253.304C1165.99 253.304 1165 253.926 1164.29 255.17C1163.58 256.409 1163.23 258.162 1163.23 260.429C1163.23 261.94 1163.39 263.224 1163.7 264.281C1164.02 265.338 1164.48 266.142 1165.08 266.693C1165.68 267.244 1166.4 267.52 1167.25 267.52ZM1185.45 265.884V264.963C1185.45 264.327 1185.59 263.744 1185.85 263.216C1186.11 262.682 1186.5 262.256 1187.01 261.938C1187.52 261.614 1188.14 261.452 1188.86 261.452C1189.6 261.452 1190.22 261.614 1190.72 261.938C1191.22 262.256 1191.6 262.682 1191.86 263.216C1192.11 263.744 1192.24 264.327 1192.24 264.963V265.884C1192.24 266.52 1192.11 267.105 1191.85 267.639C1191.59 268.168 1191.21 268.594 1190.7 268.918C1190.2 269.236 1189.59 269.395 1188.86 269.395C1188.13 269.395 1187.5 269.236 1187 268.918C1186.49 268.594 1186.11 268.168 1185.85 267.639C1185.59 267.105 1185.45 266.52 1185.45 265.884ZM1187.19 264.963V265.884C1187.19 266.412 1187.32 266.886 1187.57 267.307C1187.82 267.722 1188.25 267.929 1188.86 267.929C1189.46 267.929 1189.88 267.722 1190.12 267.307C1190.38 266.886 1190.5 266.412 1190.5 265.884V264.963C1190.5 264.435 1190.38 263.963 1190.14 263.548C1189.9 263.128 1189.48 262.918 1188.86 262.918C1188.27 262.918 1187.84 263.128 1187.58 263.548C1187.32 263.963 1187.19 264.435 1187.19 264.963ZM1176.76 255.895V254.974C1176.76 254.338 1176.89 253.756 1177.15 253.227C1177.42 252.693 1177.81 252.267 1178.31 251.949C1178.82 251.625 1179.44 251.463 1180.17 251.463C1180.91 251.463 1181.53 251.625 1182.03 251.949C1182.53 252.267 1182.91 252.693 1183.16 253.227C1183.42 253.756 1183.55 254.338 1183.55 254.974V255.895C1183.55 256.531 1183.41 257.116 1183.15 257.651C1182.9 258.179 1182.52 258.605 1182.01 258.929C1181.51 259.247 1180.9 259.406 1180.17 259.406C1179.43 259.406 1178.81 259.247 1178.3 258.929C1177.8 258.605 1177.41 258.179 1177.15 257.651C1176.89 257.116 1176.76 256.531 1176.76 255.895ZM1178.5 254.974V255.895C1178.5 256.423 1178.62 256.898 1178.88 257.318C1179.12 257.733 1179.56 257.94 1180.17 257.94C1180.77 257.94 1181.19 257.733 1181.43 257.318C1181.68 256.898 1181.81 256.423 1181.81 255.895V254.974C1181.81 254.446 1181.69 253.974 1181.45 253.56C1181.21 253.139 1180.78 252.929 1180.17 252.929C1179.57 252.929 1179.14 253.139 1178.88 253.56C1178.63 253.974 1178.5 254.446 1178.5 254.974ZM1177.41 269.156L1189.41 251.702H1191.35L1179.35 269.156H1177.41Z" fill="#666666"/>
<rect x="1011.5" y="306.656" width="200" height="60" rx="20" fill="#0EB400"/>
<path d="M1075.16 321.692H1077.81V350.684H1075.16V321.692ZM1055.76 341.5H1058.16C1063 341.5 1067.32 341.308 1072.44 340.476L1072.72 342.652C1067.48 343.516 1063.12 343.708 1058.16 343.708H1055.76V341.5ZM1055.7 324.412H1069.08V334.748H1058.42V342.332H1055.76V332.572H1066.39V326.588H1055.7V324.412ZM1090.1 338.972H1092.75V350.652H1090.1V338.972ZM1100.43 338.972H1103.12V350.652H1100.43V338.972ZM1083.51 338.62H1109.75V340.796H1083.51V338.62ZM1086.8 322.844H1089.46V326.716H1103.76V322.844H1106.39V335.228H1086.8V322.844ZM1089.46 328.892V333.02H1103.76V328.892H1089.46ZM1118.99 324.028H1121.07V327.708C1121.07 331.932 1118.8 336.572 1114.61 338.524L1113.2 336.54C1116.91 334.812 1118.99 330.908 1118.99 327.708V324.028ZM1119.57 324.028H1121.65V327.708C1121.65 330.748 1123.47 334.876 1127.18 336.732L1126 338.876C1121.58 336.796 1119.57 331.74 1119.57 327.708V324.028ZM1130.38 324.028H1132.43V327.708C1132.43 331.932 1130.45 336.86 1126 338.876L1124.85 336.732C1128.56 334.94 1130.38 330.94 1130.38 327.708V324.028ZM1130.99 324.028H1133.04V327.708C1133.04 331.228 1135.09 334.908 1138.86 336.54L1137.42 338.524C1133.2 336.636 1130.99 332.284 1130.99 327.708V324.028ZM1112.94 344.572H1139.18V346.78H1112.94V344.572ZM1163.47 321.724H1166.12V350.652H1163.47V321.724ZM1154.99 324.828H1157.61C1157.61 333.212 1153.84 340.54 1144.17 345.276L1142.76 343.132C1151.12 339.1 1154.99 332.956 1154.99 325.276V324.828ZM1144.08 324.828H1156.14V327.004H1144.08V324.828Z" fill="white"/>
</svg>
