<svg width="33" height="41" viewBox="0 0 33 41" fill="none" xmlns="http://www.w3.org/2000/svg">
<path fill-rule="evenodd" clip-rule="evenodd" d="M21.1884 29.4215C19.3383 30.2344 17.2934 30.6856 15.143 30.6856C6.83564 30.6856 0.101196 23.9512 0.101196 15.6438C0.101196 7.33649 6.83564 0.602051 15.143 0.602051C23.4504 0.602051 30.1848 7.33649 30.1848 15.6438C30.1848 20.3133 28.0571 24.4857 24.7184 27.2447L32.1011 38.3631L28.6481 40.6559L21.1884 29.4215ZM25.3987 15.6438C25.3987 21.3079 20.807 25.8995 15.1429 25.8995C9.4788 25.8995 4.88713 21.3079 4.88713 15.6438C4.88713 9.97965 9.4788 5.38799 15.1429 5.38799C20.807 5.38799 25.3987 9.97965 25.3987 15.6438Z" fill="#D9D9D9"/>
</svg>
