<svg width="167" height="30" viewBox="0 0 167 30" fill="none" xmlns="http://www.w3.org/2000/svg">
<path d="M12.9215 2.75618C13.7331 0.258357 17.2669 0.258357 18.0785 2.75618L19.7609 7.93404C20.1238 9.0511 21.1648 9.8074 22.3393 9.8074H27.7836C30.41 9.8074 31.502 13.1682 29.3772 14.7119L24.9727 17.912C24.0224 18.6024 23.6248 19.8261 23.9878 20.9432L25.6702 26.1211C26.4818 28.6189 23.6229 30.696 21.4981 29.1522L17.0936 25.9521C16.1434 25.2618 14.8566 25.2618 13.9064 25.9521L9.50187 29.1522C7.3771 30.696 4.51823 28.6189 5.32982 26.1211L7.01221 20.9432C7.37517 19.8261 6.97755 18.6024 6.02732 17.912L1.62278 14.7119C-0.501996 13.1682 0.589993 9.8074 3.21636 9.8074H8.66068C9.83522 9.8074 10.8762 9.0511 11.2391 7.93404L12.9215 2.75618Z" fill="#0EB400"/>
<path d="M46.9215 2.75618C47.7331 0.258357 51.2669 0.258357 52.0785 2.75618L53.7609 7.93404C54.1238 9.0511 55.1648 9.8074 56.3393 9.8074H61.7836C64.41 9.8074 65.502 13.1682 63.3772 14.7119L58.9727 17.912C58.0224 18.6024 57.6248 19.8261 57.9878 20.9432L59.6702 26.1211C60.4818 28.6189 57.6229 30.696 55.4981 29.1522L51.0936 25.9521C50.1434 25.2618 48.8566 25.2618 47.9064 25.9521L43.5019 29.1522C41.3771 30.696 38.5182 28.6189 39.3298 26.1211L41.0122 20.9432C41.3752 19.8261 40.9776 18.6024 40.0273 17.912L35.6228 14.7119C33.498 13.1682 34.59 9.8074 37.2164 9.8074H42.6607C43.8352 9.8074 44.8762 9.0511 45.2391 7.93404L46.9215 2.75618Z" fill="#0EB400"/>
<path d="M80.9215 2.75618C81.7331 0.258357 85.2669 0.258357 86.0785 2.75618L87.7609 7.93404C88.1238 9.0511 89.1648 9.8074 90.3393 9.8074H95.7836C98.41 9.8074 99.502 13.1682 97.3772 14.7119L92.9727 17.912C92.0224 18.6024 91.6248 19.8261 91.9878 20.9432L93.6702 26.1211C94.4818 28.6189 91.6229 30.696 89.4981 29.1522L85.0936 25.9521C84.1434 25.2618 82.8566 25.2618 81.9064 25.9521L77.5019 29.1522C75.3771 30.696 72.5182 28.6189 73.3298 26.1211L75.0122 20.9432C75.3752 19.8261 74.9776 18.6024 74.0273 17.912L69.6228 14.7119C67.498 13.1682 68.59 9.8074 71.2164 9.8074H76.6607C77.8352 9.8074 78.8762 9.0511 79.2391 7.93404L80.9215 2.75618Z" fill="#0EB400"/>
<path d="M114.922 2.75618C115.733 0.258357 119.267 0.258357 120.078 2.75618L121.761 7.93404C122.124 9.0511 123.165 9.8074 124.339 9.8074H129.784C132.41 9.8074 133.502 13.1682 131.377 14.7119L126.973 17.912C126.022 18.6024 125.625 19.8261 125.988 20.9432L127.67 26.1211C128.482 28.6189 125.623 30.696 123.498 29.1522L119.094 25.9521C118.143 25.2618 116.857 25.2618 115.906 25.9521L111.502 29.1522C109.377 30.696 106.518 28.6189 107.33 26.1211L109.012 20.9432C109.375 19.8261 108.978 18.6024 108.027 17.912L103.623 14.7119C101.498 13.1682 102.59 9.8074 105.216 9.8074H110.661C111.835 9.8074 112.876 9.0511 113.239 7.93404L114.922 2.75618Z" fill="#0EB400"/>
<path d="M148.922 2.75618C149.733 0.258357 153.267 0.258357 154.078 2.75618L155.761 7.93404C156.124 9.0511 157.165 9.8074 158.339 9.8074H163.784C166.41 9.8074 167.502 13.1682 165.377 14.7119L160.973 17.912C160.022 18.6024 159.625 19.8261 159.988 20.9432L161.67 26.1211C162.482 28.6189 159.623 30.696 157.498 29.1522L153.094 25.9521C152.143 25.2618 150.857 25.2618 149.906 25.9521L145.502 29.1522C143.377 30.696 140.518 28.6189 141.33 26.1211L143.012 20.9432C143.375 19.8261 142.978 18.6024 142.027 17.912L137.623 14.7119C135.498 13.1682 136.59 9.8074 139.216 9.8074H144.661C145.835 9.8074 146.876 9.0511 147.239 7.93404L148.922 2.75618Z" fill="#0EB400"/>
</svg>
